<svg xmlns="http://www.w3.org/2000/svg" xmlns:xlink="http://www.w3.org/1999/xlink" viewBox="0 0 191.8 191.8">
  <defs>
    <path id="a" d="M0 0h191.8v191.8H0z"/>
  </defs>
  <clipPath id="b">
    <use xlink:href="#a" overflow="visible"/>
  </clipPath>
  <path d="M95.9 0C42.9 0 0 42.9 0 95.9c0 53 42.9 95.9 95.9 95.9 53 0 95.9-42.9 95.9-95.9 0-53-43-95.9-95.9-95.9m41 122.2c-10 1.5-19.4-.3-27.5-6.8-6.3-5.1-9.9-11.8-11.3-19.7a34.4 34.4 0 013-20.7c.6-1.3 1.3-1.8 2.8-1.8 4.3.1 8.7 0 13 0 .9 0 1.7 0 2.1 1 .4.9-.1 1.5-.6 2.1-2.8 3.4-4.2 7.3-4.5 11.7-.4 4.7.4 9.1 2.7 13.3 6 10.6 21.4 11.2 28.3 1 5.1-7.5 4.6-19.1-1.1-25.9-3.3-3.9-7.5-5.8-12.6-5.8h-39c-1.2 0-1.1.6-1.1 1.4v50.7c0 6.2-1.5 12.1-5.2 17.2-4 5.4-9.6 8.5-16.1 9.7-9.8 1.8-19.4.8-28.4-3.9-2.4-1.3-4.5-3-6-5.2-2.5-3.7-2.3-9 .3-12.1 2.5-2.9 6.5-3.8 10.3-2.2 3.6 1.5 5.4 4.7 4.9 8.8-.1 1 .2 1.3 1.1 1.6 4.3 1.2 8.7 1.7 13.1.6 5.9-1.4 9.6-5.5 10.4-11.5.2-1.4.3-2.8.3-4.3V77.5c0-1-.3-1.6-1.1-2.1-5.1-3.4-10.6-4.7-16.6-3.7-6.7 1.1-11.4 6.2-12.5 13.2-.6 3.8-.6 7.5.5 11.2 2.6 8.7 10.3 11.8 17.5 11.1 2.4-.2 4.6-1 6.7-2.2 1.6-.9 2.7-.2 2.8 1.6v7.3c0 .8-.3 1.4-.9 1.9-5.1 4-10.8 5.2-17.1 4.6-9.6-.9-17-5.5-21.9-13.9-3.4-5.8-4.6-12.1-4.2-18.7.7-10.8 5.1-19.7 14.4-25.7 10.1-6.5 22.6-5.7 32 1.7.2.1.3.4.8.3v-5.4c0-.8.2-1.1 1-1 1.9.1 3.8 0 5.7 0 16.7 0 33.4-.2 50.2.1 17.5.4 29.8 12.5 31.6 28.6 1.9 17.6-9.9 33.2-27.8 35.8" clip-path="url(#b)" fill="#29c2ec"/>
  <path d="M136.9 122.2c-10 1.5-19.4-.3-27.5-6.8-6.3-5.1-9.9-11.8-11.3-19.7a34.4 34.4 0 013-20.7c.6-1.3 1.3-1.8 2.8-1.8 4.3.1 8.7 0 13 0 .9 0 1.7 0 2.1 1 .4.9-.1 1.5-.6 2.1-2.8 3.4-4.2 7.3-4.5 11.7-.4 4.7.4 9.1 2.7 13.3 6 10.6 21.4 11.2 28.3 1 5.1-7.5 4.6-19.1-1.1-25.9-3.3-3.9-7.5-5.8-12.6-5.8h-39c-1.2 0-1.1.6-1.1 1.4v50.7c0 6.2-1.5 12.1-5.2 17.2-4 5.4-9.6 8.5-16.1 9.7-9.8 1.8-19.4.8-28.4-3.9-2.4-1.3-4.5-3-6-5.2-2.5-3.7-2.3-9 .3-12.1 2.5-2.9 6.5-3.8 10.3-2.2 3.6 1.5 5.4 4.7 4.9 8.8-.1 1 .2 1.3 1.1 1.6 4.3 1.2 8.7 1.7 13.1.6 5.9-1.4 9.6-5.5 10.4-11.5.2-1.4.3-2.8.3-4.3V77.5c0-1-.3-1.6-1.1-2.1-5.1-3.4-10.6-4.7-16.6-3.7-6.7 1.1-11.4 6.2-12.5 13.2-.6 3.8-.6 7.5.5 11.2 2.6 8.7 10.3 11.8 17.5 11.1 2.4-.2 4.6-1 6.7-2.2 1.6-.9 2.7-.2 2.8 1.6v7.3c0 .8-.3 1.4-.9 1.9-5.1 4-10.8 5.2-17.1 4.6-9.6-.9-17-5.5-21.9-13.9-3.4-5.8-4.6-12.1-4.2-18.7.7-10.8 5.1-19.7 14.4-25.7 10.1-6.5 22.6-5.7 32 1.7.2.1.3.4.8.3v-5.4c0-.8.2-1.1 1-1 1.9.1 3.8 0 5.7 0 16.7 0 33.4-.2 50.2.1 17.5.4 29.8 12.5 31.6 28.6 1.9 17.6-9.9 33.2-27.8 35.8" clip-path="url(#b)" fill="#fff"/>
</svg>
