<svg version="1.1" id="Layer_1" xmlns="http://www.w3.org/2000/svg" x="0" y="0" viewBox="0 0 103 58" xml:space="preserve"><style>.st0{fill:#fff}.st1{fill:#27c1eb}.st3{fill:#103e64}</style><path class="st0" d="M102.7 2.7c-.1-.4-.3-.8-.7-1L99.2.3c-.2-.1-.4-.1-.6-.1-.6 0-1.1.4-1.3.9l-1.9 5.6c-.1.4-.1.9.2 1.2.3.4.7.6 1.1.6.2 0 .4-.1.6-.2-.2.3-.3.7-.2 1.2.2.6.7 1 1.3 1h.1l2.4-.1c.5 0 1-.4 1.2-.8.2-.5.1-1-.3-1.4l-.8-.9c-.3-.3-.6-.4-1-.4-.2 0-.5.1-.7.2l-1.5.9 4.5-4c.3-.4.5-.8.4-1.3zM94.6 8.6h-.1l-60.8 6.1-2.1-1.5c-.2-.2-.4-.2-.6-.2-.3 0-.6.2-.8.4l-1.3 1.8-4.3.4c-.4-.1-.7-.2-1.1-.3v-.5h.8c.2 0 .5-.1.7-.3.2-.2.3-.4.3-.7v-3.3c0-1.1-.9-2-2-2l-6.6.1c-1.1 0-2 .9-2 2v3.3c0 .3.1.5.3.7.2.2.4.3.7.3h.8V15.5c-6 1.5-10.9 6.3-12.1 12.6-.9 4.3 0 8.6 2.4 12.3s6.1 6.1 10.4 7c1.1.2 2.2.3 3.3.3 1.1 0 2.2-.1 3.2-.3l18.3 5h.2c.3 0 .5-.1.7-.3.2-.2.3-.6.2-.9l-.3-.9-1.7-5.6 50.2-5.3c.7-.1 1.2-.6 1.3-1.2l3.7-28c.1-.4-.1-.8-.3-1.1-.6-.4-1-.5-1.4-.5zM6.1 16.1c.2.5.7.8 1.2.8.7 0 1.3-.6 1.4-1.3l.3-4.9c0-.4-.1-.7-.4-1-.2-.3-.6-.5-.9-.5-.2 0-.4 0-.6.1l-2.1 1c-.3.2-.6.4-.7.8-.1.3-.1.7 0 1.1l1.8 3.9zM5.7 20.7c.5 0 1-.3 1.2-.8.2-.5.2-1-.1-1.4l-3-4c-.3-.4-.7-.6-1.1-.6-.6 0-1.1.3-1.3.9l-1 2.5c-.1.3-.1.7 0 1.1s.4.6.8.7l4 1.6c.1-.1.3 0 .5 0zM15.7 47.6c-.4 0-.8.2-1 .5l-.5.7c.1-.3 0-.5-.1-.8-.2-.5-.6-.7-1.1-.7-.1 0-.3 0-.4.1l-2.7 1c-.4.2-.8.6-.8 1 0 .5.2.9.6 1.2l1.1.7c.2.1.4.2.6.2.3 0 .7-.1.9-.4l1.2-1.2-3.2 4.4c-.2.3-.3.6-.2 1 .1.3.3.6.6.8l3 1.8c.2.1.4.2.6.2.6 0 1.1-.4 1.2-1l1.5-7.9c.1-.4 0-.7-.3-1-.3-.5-.6-.6-1-.6zM19.6 48.9c-.2-.3-.6-.5-1-.5-.3 0-.7.1-.9.4-.2.3-.3.6-.3.9l.7 6.5c.1.6.6 1.1 1.2 1.1.2 0 .4-.1.6-.2l2.8-1.6c.3-.2.5-.5.6-.8s0-.7-.2-1l-3.5-4.8z"/><path class="st1" d="M98.8 1.1l2.8 1.4c.2.1.3.5.1.6L97 7.4c-.3.3-.8 0-.6-.4l1.9-5.6c0-.3.3-.4.5-.3zM100.3 7.9l.7.8c.2.2.1.6-.3.7l-2.4.1c-.4 0-.6-.5-.2-.7l1.6-.9c.3-.1.5-.1.6 0zM95.1 10.1l-3.7 28c0 .2-.2.4-.4.4l-50.7 5.4c-.3 0-.5.3-.4.6l1.9 6.1c.1.4-.2.7-.6.6l-19.7-5.4c-.2 0-.3-.2-.3-.3l-.7-1.9c-.1-.1 0-.3.1-.4l-1.9-25.4c-.1-.3.1-.6.4-.6l75.7-7.6c.1-.1.4.2.3.5z"/><g><path class="st1" d="M5.4 11.1l2.1-.9c.3-.1.6.1.6.4l-.3 4.9c0 .4-.6.6-.8.2l-1.8-4c-.1-.2 0-.5.2-.6zM3 15l3 4c.3.3-.1.8-.5.7l-4-1.6c-.2-.1-.3-.3-.2-.6l1-2.5c.1-.2.5-.3.7 0z"/></g><path fill="#0090c1" d="M21.1 45.8l18.5-1.9 2.3 7.5z"/><g><path class="st3" d="M61.8 20.1c-1 .1-1.9.5-2.7 1.1-.4.3-.3.6-.2.7l.4.6c.1.1.2.2.3.2.1 0 .3 0 .5-.2.5-.4.9-.6 1.4-.6.5-.1.9 0 1.1.2.2.2.3.6.3 1.2l-1.4.1c-2 .2-3.2 1.3-3.3 3-.1.8.1 1.4.6 1.9.4.4 1.1.6 1.9.6h.6c2.2-.2 3.5-1.5 3.6-3.6l.1-2.2c.1-1.1-.2-1.9-.7-2.4-.5-.5-1.4-.7-2.5-.6zm1 5.3c-.1 1.1-.5 1.6-1.4 1.7-.4 0-.7 0-.9-.2-.1-.1-.2-.3-.2-.6 0-.6.5-1 1.4-1.1l1.1-.1v.3zm-1.3-5.9s.1 0 0 0l1.1-.1c.2 0 .4-.1.5-.3l1.5-2.1c.2-.2.1-.4.1-.5 0-.1-.1-.2-.4-.2l-1.2.1c-.2 0-.4.1-.5.3l-1.3 2.1c-.1.2-.1.3-.1.5 0 .1.1.2.3.2zm-14.7.1c-.1-.3-.3-.4-.6-.4l-1.5.2c-.3 0-.5.2-.6.5l-4 10.5c-.1.2-.1.4 0 .5.1.1.2.1.3.1h.1l1.2-.1c.3 0 .5-.2.6-.5l.6-1.7 3.7-.4.4 1.5c.1.3.3.4.6.4L49 30c.2 0 .3-.1.4-.2.1-.1.1-.3.1-.4l-2.7-9.8zm-3 7l1.5-4.3 1 4.1-2.5.2zm10.5-5.7c-2.1.2-3.4 1.5-3.5 3.5l-.3 4.9c0 .2 0 .3.1.4.1.1.2.1.3.1h.1l1-.1c.3 0 .5-.2.6-.6l.3-4.8c.1-1 .5-1.5 1.3-1.6.4 0 .6 0 .8.2.2.2.3.6.3 1.1l-.3 4.8c0 .2 0 .3.1.4.1.1.2.1.4.1l1-.1c.3 0 .5-.2.5-.6l.3-4.9c.1-1-.2-1.8-.7-2.3-.4-.4-1.2-.6-2.3-.5zm22.2-.5c.5-.1.9 0 1.3.2.3.1.6.1.7-.2l.5-.7c.1-.2.1-.3.1-.5 0-.1-.1-.2-.2-.3-.6-.4-1.5-.5-2.5-.4-1.9.2-3.2 1.4-3.3 3-.1.8.1 1.3.4 1.7.4.5 1.1.7 2.2.7.7 0 1.1.1 1.2.3.1.1.1.2.1.3 0 .7-.7.9-1.3 1-.6.1-1.2-.1-1.8-.4-.3-.2-.5-.1-.7.2l-.5.7c-.2.4-.1.6.1.7.6.4 1.3.6 2.3.6h.8c1.9-.2 3.1-1.4 3.2-3 .1-.8-.1-1.4-.5-1.8-.4-.5-1.1-.7-2.2-.7-.7 0-1-.1-1.2-.3-.1-.1-.1-.2-.1-.3.1-.4.5-.7 1.4-.8zm-8.3-4.1l-1 .1c-.3 0-.5.2-.5.6L66 27.7c0 .2 0 .3.1.4.1.1.2.1.3.1h.1l1-.1c.3 0 .5-.2.6-.6l.7-10.7c0-.2 0-.3-.1-.4-.2-.1-.3-.1-.5-.1zm17.7 2.1c-.5-.5-1.4-.7-2.4-.6-2.1.2-3.4 1.5-3.5 3.6l-.1 2.2c-.1 1.1.2 1.9.7 2.4.5.4 1.1.7 2 .7h.7c1-.1 1.9-.5 2.6-1.2.2-.2.3-.5.1-.7l-.4-.6c-.1-.1-.2-.2-.3-.2-.1 0-.3 0-.5.2-.4.4-.9.6-1.4.7-.5.1-.9 0-1.1-.2-.2-.2-.3-.6-.3-1.2v-.2l4-.4c.3 0 .5-.2.5-.6l.1-1.3c.1-1.3-.1-2.1-.7-2.6zM84.6 21v.1l-2.5.3v-.1c.1-1.1.5-1.6 1.4-1.7h.2c.3 0 .5.1.6.2.2.3.3.7.3 1.2zm-13.4-5.1c-.7.1-1.2.6-1.3 1.3 0 .4.1.7.3.9.2.2.4.3.7.3h.2c.7-.1 1.2-.6 1.3-1.3 0-.3-.1-.6-.3-.8-.2-.4-.6-.5-.9-.4zm.3 3.4l-1 .1c-.3 0-.5.2-.5.6l-.5 7.4c0 .2 0 .3.1.4.1.1.2.1.3.1h.1l1-.1c.3 0 .5-.2.5-.6l.5-7.4c0-.2 0-.3-.1-.4-.1-.1-.3-.1-.4-.1z"/><path class="st0" d="M41.1 38.9c0 .1-.1.2-.2.2l-.7.1c-.1 0-.2-.1-.2-.2l.4-6.1c0-.1.1-.2.2-.3l.7-.1c.1 0 .2.1.2.2l-.4 6.2zM45.2 35.6c0-.7-.2-1-.7-.9-.5.1-.8.4-.9 1.1l-.2 2.9c0 .1-.1.2-.2.2l-.7.1c-.1 0-.2-.1-.2-.2l.2-2.9c.1-1.2.8-1.9 2-2 1.2-.1 1.8.4 1.8 1.6l-.2 2.9c0 .1-.1.2-.2.2l-.6.1c-.1 0-.2-.1-.2-.2l.1-2.9zM48.8 38.4c-.8.1-1.4 0-1.8-.3-.1-.1-.1-.2 0-.3l.3-.4c.1-.1.2-.2.3-.1.3.2.7.3 1.1.3.5-.1.8-.3.8-.7 0-.3-.2-.5-.9-.5-1.1 0-1.5-.5-1.5-1.4.1-.9.8-1.6 1.9-1.7.6-.1 1.1 0 1.4.2.1.1.1.2 0 .3l-.3.4c-.1.1-.2.2-.3.1-.2-.1-.5-.2-.8-.1-.6.1-.9.3-.9.7 0 .3.2.4.8.4 1.1 0 1.6.5 1.5 1.4.2 1-.5 1.6-1.6 1.7zM54.3 37.4c0 .1 0 .2-.1.3-.2.1-.5.2-.8.2-1.1.1-1.6-.4-1.6-1.5L52 34h-.4c-.1 0-.2-.1-.2-.2v-.5c0-.1.1-.2.2-.3h.4l.1-1c0-.1.1-.2.2-.2l.6-.1c.1 0 .2.1.2.2L53 33l1.2-.1c.1 0 .2.1.2.2v.5c0 .1-.1.2-.2.3L53 34l-.2 2.4c0 .5.2.7.7.7.1 0 .3-.1.4-.1.2-.1.2 0 .3.1l.1.3zM58.8 34.2l-.1 1.3c-.1 1.2-.8 1.9-2.1 2.1-1.2.1-1.8-.3-1.7-1.4.1-1 .7-1.6 1.9-1.7l.9-.1c.1-.8-.2-1.1-.9-1-.3 0-.6.2-.9.4-.1.1-.2.1-.3 0l-.2-.4c-.1-.1-.1-.2.1-.3.5-.4 1-.6 1.5-.6 1.2-.1 1.9.5 1.8 1.7zm-1.2 1.4v-.3l-.8.1c-.5.1-.9.3-.9.8 0 .4.2.6.7.6.7-.2 1-.5 1-1.2zM62.4 33.8c0-.7-.2-1-.7-.9-.5.1-.8.4-.9 1.1l-.2 2.9c0 .1-.1.2-.2.2l-.6.1c-.1 0-.2-.1-.2-.2l.2-2.9c.1-1.2.8-1.9 2-2 1.2-.1 1.8.4 1.8 1.6l-.2 2.9c0 .1-.1.2-.2.2l-.6.1c-.1 0-.2-.1-.2-.2v-2.9zM67.3 36c0 .1 0 .2-.1.3-.2.1-.5.2-.8.2-1.1.1-1.6-.4-1.6-1.5l.2-2.4h-.4c-.1 0-.2-.1-.2-.2v-.5c0-.1.1-.2.2-.3h.4l.1-1c0-.1.1-.2.2-.2l.6-.1c.1 0 .2.1.2.2l-.1 1 1.2-.1c.1 0 .2.1.2.2v.5c0 .1-.1.2-.2.3l-1.2.2-.2 2.4c0 .5.2.7.7.7.1 0 .3-.1.4-.1.2-.1.2 0 .3.1l.1.3zM71.8 32.9l-.1 1.3c-.1 1.2-.8 1.9-2.1 2.1-1.2.1-1.8-.3-1.7-1.4.1-1 .7-1.6 1.9-1.7l.9-.1c.1-.8-.2-1.1-.9-1-.3 0-.6.2-.9.4-.1.1-.2.1-.3 0l-.2-.4c-.1-.1-.1-.2.1-.3.5-.4 1-.6 1.5-.6 1.2-.2 1.9.4 1.8 1.7zM70.6 29c.1 0 .2 0 .2.1l.7 1.1c.1.1 0 .2-.1.2l-.5.1c-.1 0-.2 0-.2-.1l-.4-.6-.5.7-.2.2-.5.1c-.2 0-.2-.1-.1-.2l.9-1.3.2-.2.5-.1zm0 5.2v-.3l-.7.1c-.6 0-.9.3-.9.7 0 .4.2.6.7.6.6-.1.9-.4.9-1.1zM75.4 32.4c0-.7-.2-1-.7-.9-.5.1-.8.4-.9 1.1l-.2 2.9c0 .1-.1.2-.2.2l-.6.1c-.1 0-.2-.1-.2-.2l.2-2.9c.1-1.2.8-1.9 2-2 1.2-.1 1.8.4 1.8 1.6l-.2 2.9c0 .1-.1.2-.2.2l-.6.1c-.1 0-.2-.1-.2-.2v-2.9zM81.1 32.6c0 .1-.1.2-.2.2l-2.5.3v.2c-.1.8.2 1.1 1 1 .3 0 .6-.2.9-.4.1-.1.2-.1.3 0l.2.4c.1.1.1.2-.1.3-.4.4-.9.6-1.5.7-1.4.1-2-.4-1.9-1.7l.1-1.3c.1-1.2.8-1.9 2-2.1 1.2-.1 1.9.5 1.8 1.7l-.1.7zm-1-.5V32c0-.7-.2-1-.8-.9-.6.1-.9.4-.9 1.1v.1l1.7-.2zM85.6 31.4l-.1 1.3c-.1 1.2-.8 1.9-2.1 2.1-1.2.1-1.8-.3-1.7-1.4.1-1 .7-1.6 1.9-1.7l.9-.1c.1-.8-.2-1.1-.9-1-.3 0-.6.2-.9.4-.1.1-.2.1-.3 0l-.2-.4c-.1-.1-.1-.2.1-.3.5-.4 1-.6 1.5-.6 1.3-.2 1.9.4 1.8 1.7zm-1.1 1.3v-.3l-.8.1c-.5.1-.9.3-.9.8 0 .4.2.6.7.6.6-.1.9-.5 1-1.2z"/></g><g><path class="st3" d="M29.4 18.2l1.1.8 1-1.4s.1-.1.2 0l.9.7h.2l1.4-1.9v-.2L31 13.9h-.1l-1.3 1.8v.1l.9.7s.1.1 0 .1l-1.1 1.6zM17.2 15.3h5.2v-1.4h1.7v-3.3c0-.6-.5-1.1-1.1-1.1l-6.6.1c-.6 0-1.1.5-1.1 1.1V14h1.8l.1 1.3z"/><circle class="st0" cx="20.2" cy="31.3" r="13.3"/><path class="st3" d="M23.2 16.3C14.9 14.6 6.7 20 5 28.3s3.7 16.5 12 18.2 16.5-3.7 18.2-12-3.6-16.5-12-18.2zm-5.3 27.2c-6.9-1.3-11.3-8-9.8-14.8 1.4-6.4 7.8-10.6 14.3-9.4 6.9 1.3 11.3 8 9.8 14.8-1.4 6.4-7.8 10.6-14.3 9.4z"/><path class="st1" d="M18.9 34.9l1.4-1.7c.2 0 .3 0 .5-.1.9-.3 1.3-1.1 1.1-2l4.9-6.2-.3-.3-5.9 5.4c-.3-.1-.6-.1-.9 0-.8.2-1.3 1-1.2 1.8L17 33.3l1.9 1.6z"/><g><path class="st3" d="M13.9 40.7l1.1.6h.1l1.4-2.3v-.1l-1.1-.6h-.1l-1.4 2.4zM24 23.6l1.1.6h.1l1.4-2.3v-.1l-1.1-.6h-.1L24 23.6zM10.1 36.4l.6 1.1h.1l2.4-1.3v-.1l-.7-1.1h-.1l-2.3 1.4c0-.1 0-.1 0 0zM30.3 26.2l-.6-1.1h-.1l-2.4 1.3v.1l.6 1.1h.1l2.4-1.4c0 .1.1.1 0 0zM11.6 30.6H8.9v1.2h2.7v-1.2c.1 0 .1 0 0 0zM28.8 32h2.7v-1.2h-2.7V32c-.1-.1-.1 0 0 0zM13.2 26.3l-2.3-1.4h-.1l-.6 1.1v.1l2.3 1.4h.1l.6-1.2c0 .1 0 .1 0 0zM27.2 36.2l2.3 1.4h.1l.6-1.1v-.1L27.9 35h-.1l-.6 1.2zM14.1 21.8l1.3 2.4h.1l1.1-.6v-.1l-1.3-2.4h-.1l-1.1.7c0-.1 0-.1 0 0zM23.8 39.1l1.3 2.4h.1l1.1-.6v-.1L25 38.4h-.1l-1.1.7c0-.1 0 0 0 0zM19.7 20l-.1 2.7h1.2L21 20h-1.3zM19.4 39.8l-.1 2.7h1.2l.1-2.7h-1.2c.1 0 0 0 0 0z"/></g></g><text transform="translate(86.169 31.315)" class="st0" font-size="3.516" font-family="Poppins-Bold">*</text><path class="st1" d="M10.3 49.2l2.7-1c.3-.1.5.2.3.4l-1.6 1.7c-.1.1-.2.1-.3 0l-1.1-.7c-.3 0-.2-.3 0-.4zM11.1 54.8l4.5-6.1c.2-.2.5-.1.5.2l-1.5 7.9c0 .2-.2.3-.4.2l-3-1.8c-.2-.1-.2-.3-.1-.4zM18.8 49.5l3.5 4.9c.1.1.1.3-.1.4l-2.8 1.6c-.2.1-.4 0-.4-.2l-.7-6.5c0-.3.3-.5.5-.2z"/></svg>