<svg version="1.1" id="Layer_1" xmlns="http://www.w3.org/2000/svg" x="0" y="0" viewBox="0 0 89 51" xml:space="preserve"><style>.st0{fill:#113c64}.st1{fill:#1fc3f3}</style><path class="st0" d="M4.8 27.9c-.1 0-.2-.1-.3-.1-1-.2-1.4-.6-1.4-1.1 0-.4.1-.5.2-.6.3-.3.8-.4.9-.4.9 0 1.4.3 2.1.7l.4.2 1.1-1.8-.4-.2c-.8-.5-1.7-1.1-3.2-1.1-.6 0-1.7.2-2.5 1.1-.5.6-.7 1.3-.7 2.2 0 1 .5 1.9 1.4 2.4.6.4 1.3.6 1.6.7h.1c1.1.4 1.8.9 1.8 1.5 0 .3-.3 1.1-1.2 1.1-.5 0-1.7 0-2.9-1.2L.2 32.8c.7.8 1.6 1.3 2.6 1.6.8.2 1.4.3 1.9.3 1 0 1.8-.4 2.5-1.1.5-.7.8-1.5.8-2.2 0-.8-.3-1.5-.8-2.1-.5-.6-1.3-1.1-2.4-1.4zM9.7 23.7h2.1v10.7H9.7zM19.1 27.8l-4.5-4.1h-.7v10.7H16v-6.6l3.1 2.8 3.1-2.8v6.6h2.1V23.7h-.8zM34.6 23.7h-2.1v6.8c0 .5-.2 1-.6 1.4-.4.4-.9.6-1.4.6-.5 0-1-.2-1.4-.6-.4-.4-.6-.9-.6-1.4v-6.8h-2.1v6.8c0 2.3 1.9 4.1 4.2 4.1 2.3 0 4.1-1.9 4.1-4.1v-6.8zM38.9 23.7h-2.2v10.7h6.2v-2.1h-4zM50.1 23.7l-5.5 10.7H47l3.3-6.5 3.1 6.5h2.4l-5.1-10.7zM64.3 25.2c-.5-.5-1.1-.9-1.7-1.1-.7-.3-1.4-.4-2.1-.4h-3v10.7h3.1c.7 0 1.4-.1 2.1-.4.6-.3 1.2-.7 1.7-1.1.5-.5.9-1.1 1.1-1.7.3-.7.4-1.4.4-2.1 0-.7-.1-1.4-.4-2.1-.4-.7-.7-1.3-1.2-1.8zm-3.8 7.1h-.9v-6.4h.9c1.8 0 3.2 1.4 3.2 3.2 0 1.7-1.5 3.2-3.2 3.2zM73.2 23.5c-3.1 0-5.6 2.5-5.6 5.6 0 3.1 2.5 5.6 5.6 5.6s5.6-2.5 5.6-5.6c0-3.1-2.5-5.6-5.6-5.6zm0 8.9c-1.9 0-3.4-1.5-3.4-3.4s1.5-3.4 3.4-3.4 3.4 1.5 3.4 3.4-1.5 3.4-3.4 3.4zM86.2 29.8c1.1-.5 1.9-1.6 1.9-2.9 0-1.8-1.4-3.2-3.2-3.2h-4.2v10.7h2.1v-8.6h2.1c.6 0 1.1.5 1.1 1.1 0 .6-.5 1.1-1.1 1.1h-.8v2.1l2 4.3h2.3l-2.2-4.6zM43.1 23.2h.2c.2 0 .3-.1.4-.2l1.5-1.8c.3-.3.5-.6.8-.9.1-.1.1-.1.2-.1.6.2 1.3.3 1.9.5.6.1 1.1.3 1.7.4.5.1.8-.2.8-.5 0-.1 0-.2-.1-.4-.5-.6-.9-1.2-1.4-1.8-.5-.6-1-1.2-1.4-1.9-.4-.6-.9-1.1-1.3-1.7-.4-.5-.7-.9-1.1-1.4-.4-.5-.8-1-1.2-1.6-.2-.2-.4-.3-.6-.2-.2.1-.4.2-.4.5v1c0 .8-.1 1.6-.1 2.4 0 .9-.1 1.9-.1 2.8 0 .9-.1 1.7-.1 2.6 0 .5 0 1-.1 1.6 0 .2.1.4.2.5.1.2.1.2.2.2z"/><path class="st0" d="M50.5 20.2c-.5-.6-.9-1.2-1.4-1.8-.5-.6-1-1.2-1.4-1.9-.4-.6-.9-1.1-1.3-1.7-.4-.5-.7-.9-1.1-1.4-.4-.5-.8-1-1.2-1.6-.2-.2-.4-.3-.6-.2l2.6 8.6c.1-.1.1-.1.2-.1.6.2 1.3.3 1.9.5.6.1 1.1.3 1.7.4.5.1.8-.2.8-.5 0 0-.1-.2-.2-.3z"/><g><path class="st1" d="M41.4 11.9c.1-.9.6-1.6 1.5-1.9.2-.1.5-.1.7-.1h.2c.2 0 .4.1.5.1V0c-.1.1-10.5 10.3-10.5 10.3H37v8.4h4.1l.2-5.9c.1-.3.1-.6.1-.9zM45.2 10.8c.4.4.7.9 1.1 1.3l1.3 1.7 1.4 1.8 2.5 3.2h.5v-8.4h2.9l-.1-.1-.1-.1-.2-.2-.9-.9L52.5 8l-1.1-1.1-1.1-1.1-1.1-1.1-1.1-1.1L47 2.5c-.4-.4-.9-.8-1.3-1.3l-.2-.2-1.1-1.1v10c.3.4.6.6.8.9zM24.1 44.5h3.6v1.9h-5.5v-9.7h1.9v7.8zM37.9 41.6c0 2.8-2.3 5-5 5-2.8 0-5-2.3-5-5 0-2.8 2.3-5 5-5s5 2.3 5 5zm-8 0c0 1.7 1.4 3 3 3 1.7 0 3-1.4 3-3 0-1.7-1.4-3-3-3-1.7 0-3 1.4-3 3zM46.2 39.1c-1.9-1.2-4.7-.1-4.7 2.5 0 2.7 3 3.8 4.8 2.4l1.2 1.4c-.9.7-2 1.2-3.2 1.2-2.8 0-5-2.3-5-5 0-2.8 2.3-5 5-5 1.2 0 2.2.4 3.1 1.1l-1.2 1.4zM54.2 36.8l4.6 9.7h-2.1l-2.8-5.9-3 5.9h-2.2l4.9-9.7h.6zM63.7 47.2c.5.1 1.4.5 1.3 1.8-.2 1.6-2.2 1.7-2.9.7l.6-.6c.2.2 1.1.6 1.2-.3.1-1-1.4-1-1.4-1v-1.3c-2.1-.6-3.6-2.5-3.6-4.8 0-2.8 2.3-5 5-5 1.2 0 2.2.4 3.1 1.1l-1.2 1.4c-1.9-1.2-4.7-.1-4.7 2.5 0 2.7 3 3.8 4.8 2.4l1.2 1.4c-.9.7-2 1.2-3.2 1.2h-.2v.5zM73.3 36.8l4.6 9.7h-2.1L73 40.6l-3 5.9h-2.2l4.9-9.7h.6zm-2.3-.9c.3-.3.7-.6 1.1-.6.5 0 .7.1 1 .3.3.2.7.4 1.3.4 1.2 0 1.9-1.3 1.9-1.3l-.7-.7s-.6.6-1.1.6c-.2 0-.3-.1-.6-.2-.4-.2-.9-.5-1.8-.5-.7 0-1.4.3-2.1 1.5l1 .5zM88.4 41.6c0 2.8-2.3 5-5 5s-5-2.3-5-5c0-2.8 2.3-5 5-5s5 2.3 5 5zm-8.1 0c0 1.7 1.4 3 3 3 1.7 0 3-1.4 3-3 0-1.7-1.4-3-3-3s-3 1.4-3 3z"/><g><path class="st1" d="M6.9 38.2c-.4-.4-1-.8-1.5-1-.6-.2-1.2-.4-1.9-.4H.7v9.7h2.7c.6 0 1.3-.1 1.9-.4.6-.2 1.1-.6 1.5-1 .5-.4.8-1 1-1.5.3-.6.4-1.2.4-1.9 0-.6-.1-1.3-.4-1.9-.1-.6-.5-1.1-.9-1.6zm-3.5 6.3h-.8v-5.8h.8c1.6 0 2.9 1.3 2.9 2.9 0 1.6-1.3 2.9-2.9 2.9zM16.2 38.7v-1.9H9.8v9.7h6.4v-2h-4.3v-2h3.2v-2h-3.2v-1.8z"/></g><g><path class="st1" d="M6.9 38.2c-.4-.4-1-.8-1.5-1-.6-.2-1.2-.4-1.9-.4H.7v4.8h1.9v-2.9h.8c1.6 0 2.9 1.3 2.9 2.9h1.9c0-.6-.1-1.3-.4-1.9-.1-.5-.5-1-.9-1.5zM16.2 38.7v-1.9H9.8V41.6h5.3v-1.1h-3.2v-1.8z"/></g><g><path class="st1" d="M22.2 36.8h1.9v4.8h-1.9zM32.9 36.6c-2.8 0-5 2.3-5 5h2c0-1.7 1.4-3 3-3 1.7 0 3 1.4 3 3h2c0-2.7-2.3-5-5-5zM46.2 39.1l1.2-1.4c-.9-.7-1.9-1.1-3.1-1.1-2.8 0-5 2.2-5 5h2.2c0-2.5 2.9-3.7 4.7-2.5zM53.6 36.8l-2.5 4.8h2.2l.5-1 .5 1h2.1l-2.2-4.8zM65.7 39.1l1.2-1.4c-.9-.7-1.9-1.1-3.1-1.1-2.8 0-5 2.2-5 5H61c0-2.5 2.9-3.7 4.7-2.5zM72.7 36.8l-2.5 4.8h2.2l.5-1 .5 1h2.1l-2.2-4.8zM74.5 34.6c-.2 0-.3-.1-.6-.2-.4-.2-.9-.5-1.8-.5-.7 0-1.4.3-2.1 1.5l.9.6c.3-.3.7-.6 1.1-.6.5 0 .7.1 1 .3.3.2.7.4 1.3.4 1.2 0 1.9-1.3 1.9-1.3l-.6-.8s-.6.6-1.1.6zM83.3 36.6c-2.8 0-5 2.3-5 5h2c0-1.7 1.4-3 3-3 1.7 0 3 1.4 3 3h2c.1-2.7-2.2-5-5-5z"/></g></g></svg>