<?xml version="1.0" encoding="utf-8"?>
<!-- Generator: Adobe Illustrator 24.0.1, SVG Export Plug-In . SVG Version: 6.00 Build 0)  -->
<svg version="1.1" id="Layer_1" xmlns="http://www.w3.org/2000/svg" xmlns:xlink="http://www.w3.org/1999/xlink" x="0px" y="0px"
	 viewBox="0 0 287.04 112.04" style="enable-background:new 0 0 287.04 112.04;" xml:space="preserve">
<style type="text/css">
	.st0{fill:#27C3ED;}
	.st1{fill:#113C64;}
	.st2{fill:#FFFFFF;}
</style>
<g>
	<g>
		<path class="st0" d="M286.13,46.12c-2.15-12.67-8.24-23.32-17.83-31.88c-9.75-8.7-21.21-13.37-34.23-14.14
			c-5.86-0.35-11.67,0.2-17.35,1.78c-16.49,4.59-28.51,14.62-36.2,29.88c-0.03,0.05-0.04,0.09-0.06,0.14
			c4.45,0.77,7.59,2.75,9.54,6.08c1.22,2.08,1.88,4.51,2.03,7.41v0c0.13,2.6,0.11,5.24,0.09,7.56c-0.01,1.39-0.02,2.71,0,3.92l0,13
			c0,2.26-1.05,3.32-3.3,3.32l-1.65,0c-1.1,0-2.19-0.01-3.29,0.01c-1.25-0.01-2.18-0.52-2.7-1.46c-1.14,0.62-2.3,1.08-3.49,1.41
			c0.04,0.16,0.1,0.36,0.2,0.63c3.48,10.23,9.33,18.87,17.76,25.63c13.57,10.88,29.04,14.72,46.1,11.56
			c12.97-2.4,23.79-8.84,32.2-19C285.02,78.6,289.03,63.19,286.13,46.12z"/>
		<path class="st1" d="M-0.22,43.06V28.73c0-6.45,3.88-11.7,10.06-13.62c6.92-2.15,13.89,0.07,17.87,5.7c0.64,0.9,0.6,1.33-0.21,2.1
			c-1.11,1.04-2.23,2.08-3.35,3.11c-0.65,0.6-1.01,0.6-1.71,0c-0.75-0.65-1.48-1.31-2.29-1.88c-1.17-0.83-2.46-1.46-3.84-1.79
			c-2.55-0.61-4.57,0.49-6.26,2.27c-1.55,1.62-2.27,3.58-2.33,5.86c-0.16,6.68-0.1,13.36-0.1,20.04c0,2.03,0.07,4.06,0.13,6.09
			c0.12,4.47,5.41,8.61,9.94,6.56c1.74-0.78,3.34-1.68,4.6-3.15c0.57-0.66,1.03-0.68,1.69-0.09c1.28,1.16,2.54,2.34,3.79,3.53
			c0.54,0.51,0.54,1.03,0.01,1.76c-2.62,3.64-6.11,5.9-10.59,6.46c-4.13,0.52-8.01-0.2-11.44-2.64c-3.9-2.78-5.88-6.65-5.94-11.43
			C-0.26,52.77-0.22,47.91-0.22,43.06"/>
		<path class="st1" d="M33.44,52.73c0-5.64,0-11.28,0-16.92c0-1.39,0.2-1.59,1.58-1.59c1.5,0,3,0,4.5,0c0.94,0,1.28,0.35,1.29,1.29
			c0,0.38,0.01,0.76,0,1.14c-0.02,0.45,0.13,0.81,0.54,1.01c0.41,0.2,0.77,0.07,1.11-0.22c1.64-1.39,3.51-2.32,5.63-2.68
			c1.69-0.29,3.39-0.26,5.04,0.26c0.89,0.28,1.07,0.64,0.82,1.55c-0.47,1.71-0.93,3.42-1.41,5.13c-0.26,0.94-0.52,1.14-1.53,1.08
			c-1.62-0.1-3.25-0.17-4.85,0.2c-2.96,0.68-4.55,2.57-4.72,5.64c-0.17,3.07-0.07,6.14-0.08,9.22c-0.02,4.01,0,8.03-0.01,12.04
			c0,1.14-0.24,1.38-1.38,1.38c-1.7,0-3.4,0-5.11,0c-1.14,0-1.43-0.29-1.43-1.45C33.44,64.11,33.44,58.42,33.44,52.73"/>
		<path class="st2" d="M222.47,38.74c0-1.07,0.02-2.11-0.01-3.15c-0.01-0.46,0.11-0.62,0.59-0.61c1.12,0.04,2.24,0.01,3.36,0.01
			c9.81,0.01,19.62-0.14,29.43,0.06c10.26,0.21,17.47,7.35,18.51,16.8c1.16,10.51-5.78,19.65-16.27,21.18
			c-5.88,0.86-11.4-0.18-16.16-3.99c-3.72-2.97-5.83-6.91-6.61-11.57c-0.7-4.23-0.05-8.28,1.76-12.16c0.35-0.74,0.79-1.06,1.63-1.04
			c2.54,0.05,5.08,0.02,7.62,0.02c0.5,0,0.98,0.03,1.22,0.56c0.24,0.51-0.06,0.85-0.36,1.22c-1.64,1.99-2.44,4.3-2.63,6.85
			c-0.21,2.75,0.21,5.36,1.59,7.78c3.54,6.24,12.58,6.57,16.59,0.61c2.98-4.42,2.69-11.23-0.66-15.21
			c-1.92-2.28-4.41-3.37-7.37-3.38c-7.62-0.02-15.25,0-22.87-0.02c-0.68,0-0.64,0.35-0.64,0.81c0,9.91,0.02,19.83,0,29.74
			c-0.01,3.66-0.85,7.11-3.07,10.1c-2.36,3.18-5.61,4.97-9.44,5.67c-5.78,1.05-11.37,0.47-16.65-2.26
			c-1.42-0.74-2.63-1.74-3.52-3.08c-1.47-2.19-1.37-5.27,0.2-7.13c1.45-1.73,3.84-2.24,6.04-1.31c2.09,0.89,3.19,2.77,2.89,5.17
			c-0.08,0.61,0.11,0.78,0.62,0.93c2.53,0.71,5.09,0.97,7.67,0.36c3.48-0.83,5.62-3.24,6.1-6.77c0.11-0.83,0.16-1.66,0.16-2.5
			c-0.01-8.59-0.01-17.18,0.01-25.77c0-0.57-0.16-0.92-0.64-1.25c-2.97-1.98-6.21-2.74-9.72-2.14c-3.91,0.66-6.71,3.63-7.35,7.74
			c-0.34,2.2-0.35,4.4,0.3,6.56c1.53,5.09,6.02,6.92,10.26,6.5c1.41-0.14,2.71-0.61,3.96-1.29c0.94-0.51,1.61-0.11,1.62,0.95
			c0.01,1.42-0.01,2.85,0.01,4.27c0,0.48-0.18,0.79-0.56,1.09c-2.97,2.32-6.35,3.05-10.04,2.68c-5.65-0.55-9.97-3.24-12.84-8.15
			c-1.98-3.39-2.69-7.12-2.45-10.99c0.41-6.35,3.02-11.56,8.47-15.07c5.9-3.8,13.27-3.35,18.79,0.99
			C222.11,38.63,222.2,38.78,222.47,38.74"/>
		<path class="st1" d="M150.22,43.18c-0.38,3-2.41,5.11-5.36,5.62c-2.59,0.46-5.01,0.11-6.95-1.88c-1.17-1.21-1.58-2.75-1.81-4.35
			c-0.61-4.2-0.54-8.4,0.26-12.57c0.58-3.04,3.3-5.14,6.53-5.24c2.25-0.07,4.31,0.4,5.79,2.26c1.27,1.6,1.6,3.53,1.66,5.51
			c0.04,1.6,0.01,3.2,0.01,4.8C150.41,39.28,150.47,41.24,150.22,43.18 M158.11,28.21c-0.8-4.28-2.98-7.57-7.14-9.17
			c-4.75-1.82-9.45-1.55-13.96,0.92c-0.95,0.52-1.55,0.23-1.65-0.84c-0.08-0.85-0.41-1.17-1.27-1.18c-1.58-0.01-3.15,0-4.73,0
			c-1.35,0-1.58,0.24-1.58,1.61v25.08v25.23c0,1.18,0.32,1.5,1.48,1.5c1.68,0,3.36,0,5.03,0c1.33,0,1.61-0.29,1.61-1.62
			c0-4.62,0-9.25,0-13.87c0-1.52,0.48-1.87,1.85-1.27c3.32,1.46,6.77,1.71,10.29,0.98c5.79-1.2,10-6.23,10.23-12.16
			c0.08-2,0.13-4.01,0.2-6.01C158.58,34.33,158.67,31.25,158.11,28.21"/>
		<path class="st1" d="M113.49,59.17c-0.63,3.45-3.27,5.6-6.8,5.68c-4.12,0.1-6.7-2.22-7.15-6.39c-0.22-2.05-0.09-4.11-0.18-6.17
			c0.02-1.8-0.06-3.61,0.12-5.41c0.36-3.74,2.94-6.14,6.7-6.25c2.73-0.08,5.07,0.69,6.51,3.22c0.74,1.31,0.97,2.77,1.12,4.24
			C114.2,51.79,114.16,55.5,113.49,59.17 M121.84,19.28c0-1.06-0.28-1.35-1.35-1.35c-1.73,0-3.46,0-5.19,0
			c-1.18,0-1.55,0.37-1.55,1.54c0,4.83,0,9.66,0,14.49c0,1.24-0.56,1.63-1.69,1.13c-3.18-1.44-6.48-1.74-9.9-1.17
			c-7.16,1.19-10.42,7.28-10.72,11.81c-0.1,1.57-0.14,3.14-0.18,4.72c-0.1,3.43-0.31,6.86,0.2,10.27c0.69,4.62,2.87,8.21,7.39,9.9
			c4.7,1.75,9.36,1.49,13.81-0.97c0.93-0.51,1.46-0.27,1.68,0.78c0.12,0.61,0.48,0.9,1.12,0.89c1.65-0.02,3.31,0,4.96-0.01
			c1.24,0,1.41-0.17,1.41-1.4c0-8.41,0-16.82,0-25.24C121.84,36.2,121.84,27.74,121.84,19.28"/>
		<path class="st1" d="M174.6,65.29c-4.13,0.01-6.87-2.59-6.86-6.49c0.02-4.13,2.87-6.9,7.07-6.89c4,0.01,6.66,2.65,6.66,6.61
			C181.47,62.45,178.59,65.28,174.6,65.29 M190.13,45.48c-0.12-2.3-0.59-4.53-1.77-6.55c-2.03-3.47-5.32-4.84-9.11-5.32
			c-5.14-0.65-9.97,0.68-14.76,2.32c-0.62,0.21-0.86,0.69-0.67,1.33c0.39,1.28,0.8,2.56,1.22,3.84c0.21,0.64,0.67,0.86,1.31,0.72
			c0.22-0.05,0.44-0.13,0.66-0.19c2.86-0.83,5.72-1.6,8.74-1.49c0.71,0.02,1.42,0.08,2.11,0.27c3.09,0.81,4.31,2.51,4.22,5.86
			c-0.03,0.95-0.59,1.33-1.47,0.94c-3.14-1.39-6.39-1.74-9.76-1.08c-5,0.98-8.51,3.72-9.91,8.74c-0.9,3.24-0.71,6.49,0.49,9.64
			c0.93,2.45,2.51,4.41,4.86,5.53c4.89,2.34,9.81,2.55,14.62-0.32c1-0.6,1.53-0.39,1.78,0.74c0.14,0.62,0.52,0.87,1.15,0.86
			c1.65-0.02,3.3,0,4.96-0.01c1.21,0,1.41-0.2,1.41-1.43C190.21,65.81,190.33,49.54,190.13,45.48"/>
		<path class="st1" d="M77.16,48.58c-2.06-0.01-4.12,0-6.17,0c-2.01,0-4.01,0-6.02,0c-0.95,0-1.29-0.38-1.2-1.31
			c0.07-0.71,0.15-1.41,0.33-2.1c0.72-2.74,2.66-4.12,5.3-4.59c2.94-0.52,5.57,0.08,7.53,2.52c1.05,1.3,1.33,2.88,1.33,4.51
			C78.25,48.27,77.84,48.59,77.16,48.58 M85.97,45.77c-0.66-4.7-2.98-8.26-7.25-10.42c-3.55-1.8-7.32-2.08-11.2-1.44
			c-6.49,1.08-11.25,6.12-11.9,12.67c-0.42,4.18-0.46,8.37-0.13,12.55c0.28,3.44,1.47,6.58,4.13,8.9
			c4.93,4.31,10.73,4.64,16.69,2.96c3.4-0.96,5.78-3.57,7.98-6.25c0.42-0.51,0.29-1.08-0.3-1.51c-1.02-0.75-2.06-1.48-3.09-2.22
			c-1.22-0.87-1.37-0.84-2.45,0.18c-2.06,1.96-4.29,3.54-7.28,3.75c-3.61,0.25-6.69-1.96-7.4-5.42c-0.24-1.18-0.21-2.37-0.2-3.57
			c0.01-1.12,0.32-1.43,1.46-1.43c3.28,0,6.56,0,9.84,0c3.35,0,6.71,0,10.06,0c0.89,0,1.24-0.3,1.25-1.16
			C86.2,50.83,86.33,48.29,85.97,45.77"/>
	</g>
</g>
</svg>
