<?xml version="1.0" encoding="utf-8"?>
<!-- Generator: Adobe Illustrator 24.0.1, SVG Export Plug-In . SVG Version: 6.00 Build 0)  -->
<svg version="1.1" id="Layer_1" xmlns="http://www.w3.org/2000/svg" xmlns:xlink="http://www.w3.org/1999/xlink" x="0px" y="0px"
	 viewBox="0 0 203 77" style="enable-background:new 0 0 203 77;" xml:space="preserve">
<style type="text/css">
	.st0{clip-path:url(#SVGID_2_);}
	.st1{fill-rule:evenodd;clip-rule:evenodd;fill:#FFFFFF;}
	.st2{fill:#FFFFFF;}
</style>
<g>
	<defs>
		<rect id="SVGID_1_" x="0.5" y="8.2" width="201.8" height="68.7"/>
	</defs>
	<clipPath id="SVGID_2_">
		<use xlink:href="#SVGID_1_"  style="overflow:visible;"/>
	</clipPath>
	<g class="st0">
		<path class="st1" d="M50.9,58l-2.5-3.4c-10.2,10.4-23.5,12.7-31,9.5c-0.3-0.1-0.4,0.2,0.4,0.6c0.3,0.1,0.6,0.3,1,0.5
			C27.2,68.9,40.7,68,50.9,58 M21.3,67.1c-0.4-0.2-0.6,0.1,0.3,0.6c0.2,0.1,0.5,0.3,0.7,0.4c11,5,22.3,3.4,30.2-1.7L50.1,63
			C41.8,69,29.9,70.7,21.3,67.1 M43.5,54.3L41,51.1c-7.8,7.5-17.9,12.2-24.6,11.5c-0.3,0-0.3,0.2,0.4,0.4c0.2,0,0.5,0.1,0.7,0.2
			C24.2,64.7,34.2,62.8,43.5,54.3 M23.7,24.2l2.5,3.4c10.2-10.4,23.5-12.7,31-9.5c0.3,0.1,0.4-0.2-0.4-0.6c-0.3-0.1-0.6-0.3-1-0.5
			C47.4,13.2,33.9,14.1,23.7,24.2 M53.3,15.1c0.4,0.2,0.6-0.1-0.3-0.6c-0.2-0.1-0.5-0.3-0.7-0.4c-11-5-22.3-3.4-30.2,1.7l2.5,3.2
			C32.8,13.2,44.7,11.5,53.3,15.1 M57.9,19.2c-0.2,0-0.6-0.1-0.8-0.2c-6.8-1.6-16.7,0.4-26,8.8l2.4,3.2c7.8-7.5,17.9-12.2,24.6-11.5
			C58.5,19.6,58.6,19.3,57.9,19.2"/>
	</g>
	<g class="st0">
		<path class="st1" d="M50.3,52c1.3,0,3.6,0.1,5,0.1c6.7,0,10.2-2.7,10.2-7.9c0-4.2-3.1-5.6-6.4-6.4c2.6-1.1,5.1-2.8,5.1-6
			c0-3-2.3-4.8-6-4.8c-1.7,0-4.5,0.1-6.2,0.2c-1.7,0.1-3.5,0.2-5.2,0.2h-0.4l0.2,0.3c0.8,1.2,0.8,3.1,0.8,4.8v9.7
			c0,2.9,0,6.8-1.3,9.4L46,52h0.3C47.7,52,49,52,50.3,52 M51.4,29.1c0.8-0.1,2.2-0.1,2.9-0.1c3.4,0,5.7,0.6,5.7,3.7
			c0,4.4-4.6,4.9-7.7,4.9h-0.8V29.1z M51.4,39.3h0.4c5.2,0,9.2,0.2,9.2,5.5c0,3.7-2.3,5.4-6.6,5.4c-2.4,0-3.1-0.7-3.1-5.1V39.3z
			 M76.3,46.8V29.7h4.8c2.7,0,4.4-0.7,4.9-2l0.1-0.3H64.4l1.2,3.3l0.2-0.2c0.9-0.7,1.7-0.8,2.6-0.8h3.8v17.1c0,1.7,0,3.6-0.8,4.8
			L71.3,52h6l-0.2-0.3C76.3,50.4,76.3,48.5,76.3,46.8 M97.2,39.8c0.8,1.2,0.8,3.1,0.8,4.8v1.9c0,1.2,0,2.5-0.3,3.7
			c-0.9,0.1-1.7,0.2-2.5,0.2c-6.4,0-10-4-10-11.3c0-5.1,3-10.3,8.7-10.3c2.8,0,4.8,0.8,7.2,2.8l0.3,0.3v-4.7l-0.2,0
			c-0.6,0-1.1-0.1-1.7-0.2c-1.2-0.1-2.5-0.3-3.8-0.3c-9.2,0-14.7,5.1-14.7,13.5c0,8,4.5,12.2,13,12.2c2.6,0,5.6-0.2,7.7-0.6l0.2,0
			l0-0.2c-0.1-1-0.2-2.3-0.2-3.3v-3.8c0-1.7,0-3.6,0.8-4.8l0.2-0.3h-5.6L97.2,39.8z M116.9,27c-1.5,0-3.7,0.1-5.2,0.2
			c-1.5,0.1-3.1,0.2-4.6,0.2h-0.4l0.2,0.3c0.8,1.2,0.8,3.1,0.8,4.8V47c0,1.5,0,3.4-0.8,4.7l-0.2,0.3h6.2l-0.2-0.3
			c-0.9-1.3-1-3.4-1-4.8V28.9h3.2c4.1,0,5,2.5,5,5c0,5.4-4,5.8-6.9,6.2l-0.5,0.1l0.5,0.3c0.1,0.1,0.2,0.1,0.3,0.2
			c0.6,0.4,1.7,0.7,3.6,0.7c4.6,0,7.6-3.1,7.6-7.8C124.4,29.4,121.7,27,116.9,27 M137.7,46.2v-8.9c0-2.2-1.8-3.3-5.4-3.3
			c-3.6,0-7.2,1.1-7.2,3.7c0,1,0.6,1.5,1.7,1.5c1.3,0,1.7-0.9,2-1.7c0.4-1,0.8-1.9,2.7-1.9c1.9,0,2.8,1,2.8,3.1
			c0,2.2-0.4,2.3-2.2,3.2l-0.4,0.2c-0.4,0.2-0.8,0.3-1.2,0.5c-2.7,1.1-6,2.6-6,5.6c0,2.7,2,4.4,5.1,4.4c2.8,0,3.7-1.2,4.7-2.7l0,0
			c0,0,0,0,0,0c0.1,0.1,0.1,0.5,0.2,0.8c0.1,0.4,0.1,0.9,0.3,1.4l0,0.2l4.1-0.3l-0.3-0.3C137.7,50.2,137.7,48.2,137.7,46.2
			 M134.4,46c0,2-1,4-3.3,4c-1.8,0-2.8-0.9-2.8-2.5c0-2,1.4-2.7,4.3-4.1l1.8-0.9V46z M149.2,50c-4.6,0-5.5-3.7-5.5-6.8
			c0-3.7,1.6-7.4,5.2-7.4c1.7,0,2.8,0.4,3.7,2.2l0.1,0.1h0.5v-3.4c0-0.6-3-0.7-3.8-0.7c-5.7,0-9.6,4-9.6,9.8c0,5.1,3.3,8.7,8,8.7
			c2.9,0,5.9-1.2,5.9-3.4V48l-0.4,0.4C152.3,49.4,150.7,50,149.2,50 M160.7,49.9c-1.3,0-1.5-0.7-1.5-2.1V36.4h0.4
			c1.4,0,3.1-0.3,3.1-1.3c0-0.5-0.4-0.5-0.6-0.5h-3v-5.4l-3.2,0.8l-0.2,18.4c0,2.7,1.3,4.2,3.7,4.2c1.5,0,4.3-1.3,4.3-1.9l0.2-2.2
			l-0.4,0.4C163.3,49.3,161.3,49.9,160.7,49.9 M178.7,48V34l-4.6,0.7l0.5,0.3c0.7,0.5,0.8,1.1,0.8,2.4v6.5c0,3-0.3,6.2-3.5,6.2
			c-2.9,0-3.3-2.3-3.3-4.9V35.1c0-0.4,0-1.1-0.8-1.1c-0.4,0-1.2,0.1-2,0.3c-0.4,0.1-0.8,0.1-1.2,0.2l-0.6,0.1l0.5,0.3
			c0.7,0.5,0.8,1.1,0.8,2.4v10c0,3.2,2,5.3,5,5.3c2.7,0,4.2-1.5,4.9-2.1c0.1-0.1,0.1-0.1,0.2-0.2c0,0.1,0,0.2,0,0.3v1.6l4.4-0.3
			l-0.4-0.3C178.7,50.9,178.7,49.5,178.7,48 M194.1,46.2v-8.9c0-2.2-1.8-3.3-5.4-3.3c-3.6,0-7.2,1.1-7.2,3.7c0,1,0.6,1.5,1.7,1.5
			c1.3,0,1.7-0.9,2-1.7c0.4-1,0.8-1.9,2.7-1.9c1.9,0,2.8,1,2.8,3.1c0,2.2-0.4,2.3-2.2,3.2l-0.4,0.2c-0.4,0.2-0.8,0.3-1.2,0.5
			c-2.7,1.1-6,2.6-6,5.6c0,2.7,2,4.4,5.1,4.4c2.8,0,3.7-1.2,4.7-2.7l0,0v0c0.1,0.1,0.1,0.5,0.2,0.8c0.1,0.4,0.1,0.9,0.3,1.4l0,0.2
			l4.1-0.3l-0.3-0.3C194.1,50.2,194.1,48.2,194.1,46.2 M190.8,46c0,2-1,4-3.3,4c-1.8,0-2.8-0.9-2.8-2.5c0-2,1.4-2.7,4.3-4.1l1.8-0.9
			V46z M197.2,52h5.1l-0.2-0.3c-0.7-1-0.7-2.6-0.7-4l0-20.3l-4.7,0.7l0.4,0.3c0.9,0.7,0.9,2.1,0.9,3.6l0,15.6c0,1.4,0,3-0.7,4
			L197.2,52z M65,55.1c-3.2,6.3-7.9,11.2-14.5,14.4c-15.7,7.7-35.1,1.3-42.7-14.4C0.1,39.5,7.4,20.5,23.1,12.8
			c4.3-2.1,8.9-3.2,13.4-3.2c1.7,0,3.7,0.2,5.6,0.5c0.6,0.1,0.5-0.3,0-0.4c-1.9-0.4-3.9-0.8-5.7-0.9c-5.7-0.4-11.5,0.7-17,3.4
			C2.7,20.4-4.3,40.6,3.9,57.4c8.2,16.8,28.4,23.7,45.2,15.5c7.8-3.8,13.6-10.3,16.6-17.7c0.9-2.3,1-3.4,1-3.6
			C66.8,50.4,65.8,53.6,65,55.1"/>
	</g>
</g>
<g>
	<path class="st2" d="M95,6l-0.6,1.7h-0.7l1.8-5.5h0.8l1.8,5.5h-0.7L96.9,6H95z M96.8,5.4l-0.5-1.6c-0.1-0.4-0.2-0.7-0.3-1h0
		c-0.1,0.3-0.2,0.7-0.3,1l-0.5,1.6H96.8z"/>
	<path class="st2" d="M102.3,3.8c0,0.3,0,0.6,0,1.1v2.3c0,0.9-0.2,1.5-0.5,1.8c-0.4,0.4-0.9,0.5-1.4,0.5c-0.5,0-1-0.1-1.3-0.3
		l0.2-0.5c0.3,0.2,0.6,0.3,1.1,0.3c0.7,0,1.2-0.4,1.2-1.4V7h0c-0.2,0.4-0.6,0.7-1.2,0.7c-0.9,0-1.6-0.8-1.6-1.9
		c0-1.3,0.8-2.1,1.7-2.1c0.7,0,1,0.4,1.2,0.7h0l0-0.6H102.3z M101.6,5.3c0-0.1,0-0.2,0-0.3c-0.1-0.4-0.5-0.8-1-0.8
		c-0.7,0-1.1,0.6-1.1,1.5c0,0.8,0.4,1.4,1.1,1.4c0.4,0,0.8-0.3,1-0.7c0-0.1,0.1-0.3,0.1-0.4V5.3z"/>
</g>
<g>
	<path class="st2" d="M103.7,5.9c0,1,0.6,1.4,1.3,1.4c0.5,0,0.8-0.1,1.1-0.2l0.1,0.5c-0.2,0.1-0.7,0.2-1.3,0.2c-1.2,0-1.9-0.8-1.9-2
		s0.7-2.1,1.8-2.1c1.2,0,1.6,1.1,1.6,1.8c0,0.1,0,0.3,0,0.3H103.7z M105.7,5.4c0-0.5-0.2-1.2-1-1.2c-0.7,0-1,0.7-1.1,1.2H105.7z"/>
	<path class="st2" d="M107.3,4.8c0-0.4,0-0.7,0-1.1h0.6l0,0.6h0c0.2-0.4,0.6-0.7,1.3-0.7c0.5,0,1.3,0.3,1.3,1.7v2.3h-0.7V5.4
		c0-0.6-0.2-1.2-0.9-1.2c-0.5,0-0.8,0.3-0.9,0.7c0,0.1,0,0.2,0,0.3v2.4h-0.7V4.8z"/>
	<path class="st2" d="M112.5,2.7v1.1h1v0.5h-1v2.1c0,0.5,0.1,0.8,0.5,0.8c0.2,0,0.3,0,0.4,0l0,0.5c-0.1,0.1-0.3,0.1-0.6,0.1
		c-0.3,0-0.6-0.1-0.7-0.3c-0.2-0.2-0.3-0.6-0.3-1V4.3h-0.6V3.8h0.6V2.8L112.5,2.7z"/>
	<path class="st2" d="M114.6,5.9c0,1,0.6,1.4,1.3,1.4c0.5,0,0.8-0.1,1.1-0.2l0.1,0.5c-0.2,0.1-0.7,0.2-1.3,0.2c-1.2,0-1.9-0.8-1.9-2
		s0.7-2.1,1.8-2.1c1.2,0,1.6,1.1,1.6,1.8c0,0.1,0,0.3,0,0.3H114.6z M116.7,5.4c0-0.5-0.2-1.2-1-1.2c-0.7,0-1,0.7-1.1,1.2H116.7z"/>
	<path class="st2" d="M120.8,6l-0.6,1.7h-0.7l1.8-5.5h0.8l1.8,5.5h-0.7L122.7,6H120.8z M122.5,5.4L122,3.9c-0.1-0.4-0.2-0.7-0.3-1h0
		c-0.1,0.3-0.2,0.7-0.3,1l-0.5,1.6H122.5z"/>
</g>
<g>
	<path class="st2" d="M127.7,6.6c0,0.4,0,0.8,0,1.1h-0.6l0-0.6h0c-0.2,0.3-0.6,0.7-1.3,0.7c-0.6,0-1.3-0.3-1.3-1.7V3.8h0.7V6
		c0,0.7,0.2,1.2,0.9,1.2c0.5,0,0.8-0.3,0.9-0.6c0-0.1,0.1-0.2,0.1-0.4V3.8h0.7V6.6z"/>
	<path class="st2" d="M129.7,2.7v1.1h1v0.5h-1v2.1c0,0.5,0.1,0.8,0.5,0.8c0.2,0,0.3,0,0.4,0l0,0.5c-0.1,0.1-0.3,0.1-0.6,0.1
		c-0.3,0-0.6-0.1-0.7-0.3c-0.2-0.2-0.3-0.6-0.3-1V4.3h-0.6V3.8h0.6V2.8L129.7,2.7z"/>
	<path class="st2" d="M135,5.7c0,1.5-1,2.1-1.9,2.1c-1,0-1.8-0.8-1.8-2c0-1.3,0.8-2.1,1.9-2.1C134.2,3.7,135,4.5,135,5.7z
		 M131.9,5.7c0,0.9,0.5,1.5,1.2,1.5c0.7,0,1.2-0.6,1.2-1.5c0-0.7-0.3-1.5-1.1-1.5C132.3,4.2,131.9,5,131.9,5.7z M133.3,2.1l0.8,1.2
		h-0.5l-0.5-0.8h0l-0.5,0.8h-0.5l0.7-1.2H133.3z"/>
	<path class="st2" d="M135.8,4.8c0-0.4,0-0.7,0-1.1h0.6l0,0.6h0c0.2-0.4,0.6-0.7,1.3-0.7c0.5,0,1.3,0.3,1.3,1.7v2.3h-0.7V5.4
		c0-0.6-0.2-1.2-0.9-1.2c-0.5,0-0.8,0.3-0.9,0.7c0,0.1,0,0.2,0,0.3v2.4h-0.7V4.8z"/>
	<path class="st2" d="M143.7,5.7c0,1.5-1,2.1-1.9,2.1c-1,0-1.8-0.8-1.8-2c0-1.3,0.8-2.1,1.9-2.1C142.9,3.7,143.7,4.5,143.7,5.7z
		 M140.6,5.7c0,0.9,0.5,1.5,1.2,1.5c0.7,0,1.2-0.6,1.2-1.5c0-0.7-0.3-1.5-1.1-1.5C141,4.2,140.6,5,140.6,5.7z"/>
	<path class="st2" d="M144.5,4.8c0-0.4,0-0.7,0-1.1h0.6l0,0.6h0c0.2-0.4,0.6-0.7,1.2-0.7c0.5,0,0.9,0.3,1.1,0.8h0
		c0.1-0.2,0.3-0.4,0.4-0.5c0.2-0.2,0.5-0.3,0.8-0.3c0.5,0,1.3,0.3,1.3,1.7v2.3h-0.7V5.5c0-0.8-0.3-1.2-0.8-1.2
		c-0.4,0-0.7,0.3-0.8,0.6c0,0.1-0.1,0.2-0.1,0.4v2.4h-0.7V5.4c0-0.6-0.3-1.1-0.8-1.1c-0.4,0-0.7,0.4-0.9,0.7c0,0.1-0.1,0.2-0.1,0.3
		v2.4h-0.7V4.8z"/>
	<path class="st2" d="M154.6,5.7c0,1.5-1,2.1-1.9,2.1c-1,0-1.8-0.8-1.8-2c0-1.3,0.8-2.1,1.9-2.1C153.8,3.7,154.6,4.5,154.6,5.7z
		 M151.6,5.7c0,0.9,0.5,1.5,1.2,1.5c0.7,0,1.2-0.6,1.2-1.5c0-0.7-0.3-1.5-1.1-1.5C151.9,4.2,151.6,5,151.6,5.7z"/>
</g>
</svg>
