<svg version="1.1" id="Layer_1" xmlns="http://www.w3.org/2000/svg" x="0" y="0" viewBox="0 0 96 39" xml:space="preserve"><style>.st0{fill:#18385f}.st1{fill:#3fc0f0}</style><path class="st0" d="M9.9 10.4V6.1c0-1.9 1.2-3.5 3-4.1 2.1-.6 4.1 0 5.3 1.7.2.3.2.4-.1.6-.3.3-.7.6-1 .9-.2.2-.3.2-.5 0s-.4-.4-.7-.6c-.4-.2-.7-.4-1.1-.5-.8-.1-1.4.3-1.9.8s-.7 1.1-.7 1.7v7.8c0 1.3 1.6 2.6 3 2 .5-.2 1-.5 1.4-.9.2-.2.3-.2.5 0 .4.3.8.7 1.1 1.1.2.2.2.3 0 .5-.8 1.1-1.8 1.8-3.2 1.9-1.2.2-2.4-.1-3.4-.8-1.2-.8-1.8-2-1.8-3.4.1-1.5.1-3 .1-4.4M19.9 13.3v-5c0-.4.1-.5.5-.5h1.3c.3 0 .4.1.4.4v.3c0 .1 0 .2.2.3.1.1.2 0 .3-.1.5-.4 1-.7 1.7-.8.5-.1 1-.1 1.5.1.3.1.3.2.2.5-.1.5-.3 1-.4 1.5-.1.3-.2.3-.5.3-.5 0-1-.1-1.4.1-.9.2-1.4.8-1.4 1.7-.1.9 0 1.8 0 2.8v3.6c0 .3-.1.4-.4.4h-1.5c-.3 0-.4-.1-.4-.4-.1-1.8-.1-3.5-.1-5.2M43.8 15.2c-.2 1-1 1.7-2 1.7-1.2 0-2-.7-2.1-1.9-.1-.6 0-1.2-.1-1.8v-1.6c.1-1.1.9-1.8 2-1.9.8 0 1.5.2 1.9 1 .2.4.3.8.3 1.3.2 1 .2 2.1 0 3.2m2.5-11.9c0-.3-.1-.4-.4-.4h-1.5c-.4 0-.5.1-.5.5v4.3c0 .4-.2.5-.5.3-.9-.4-1.9-.5-3-.3-2.1.4-3.1 2.2-3.2 3.5 0 .5 0 .9-.1 1.4 0 1-.1 2 .1 3.1.2 1.4.9 2.5 2.2 3 1.4.5 2.8.4 4.1-.3.3-.2.4-.1.5.2 0 .2.1.3.3.3h1.5c.4 0 .4-.1.4-.4V11c.1-2.7.1-5.2.1-7.7M33 12h-3.6c-.3 0-.4-.1-.4-.4 0-.2 0-.4.1-.6.2-.8.8-1.2 1.6-1.4.9-.2 1.7 0 2.2.8.3.4.4.9.4 1.3 0 .2-.1.3-.3.3m2.6-.8c-.2-1.4-.9-2.5-2.2-3.1-1.1-.5-2.2-.6-3.3-.4-1.9.3-3.4 1.8-3.6 3.8-.1 1.2-.1 2.5 0 3.7.1 1 .4 2 1.2 2.7 1.5 1.3 3.2 1.4 5 .9 1-.3 1.7-1.1 2.4-1.9.1-.2.1-.3-.1-.5-.3-.2-.6-.4-.9-.7-.4-.3-.4-.3-.7.1-.6.6-1.3 1.1-2.2 1.1-1.1.1-2-.6-2.2-1.6-.1-.4-.1-.7-.1-1.1 0-.3.1-.4.4-.4h5.9c.3 0 .4-.1.4-.3.1-.8.1-1.5 0-2.3"/><g><path class="st1" d="M65.2 13.1c-2.3-.3-4.5 1.1-6.4 2.3-.1.1-.2.1-.3.2l.3.3c1 1.3-.1 2.3-1.1 3-1.3.9-2.7 1.6-4.3 1.9-.5.1-1.2-.5-1.2-1 0-1.4 1.2-2.4 2.2-3.2l1.2-.9c-1.1-.3-2.3-.6-3.4-.8-2.6-.6-6.5-1.5-7.1-4.7-.3-1.7.8-3.1 1.9-4.2 1.2-1.2 7.3-5.7 11.1-4.8 1.4.3 2.2 1.8 2.4 3.2.2 1.8-.9 3.3-1.9 4.6-.4.5-1.6-.6-1.2-1.2.9-1.3 2.5-3.3 1.5-5-.5-.8-1.9-.5-2.7-.3-2.8.7-5.2 1.9-7.5 4.2-1 1-2.6 2.7-1.8 4.2s6.1 3 7.8 3.4c.7.2 1.5.3 2.2.5.2-.2.5-.3.7-.5 2-1.3 4.6-2.8 7.1-2.5.4 0 .8.3.9.7.1.2 0 .7-.4.6zm-7.6 3.1c-.6.4-1.3.9-1.9 1.4-.5.4-1.2.9-1.7 1.5 1.1 0 2.7-1.2 3.7-2.2.3-.4.3-.5-.1-.7z"/><path class="st1" d="M70.8 12.9c-.9.8-1.9 1.5-2.8 2.2-.8.5-1.7 1.2-2.7 1.4-1.1.2-2.1-.8-2.2-1.9 0-1.2.9-2.7 1.5-3.7.4-.7 1.8.5 1.4 1.1-.5.8-.9 1.6-1.2 2.5 0 .1-.1.2-.1.4 1.1-.2 3.8-1.6 5.1-2.8.7-.5 1.6.4 1 .8zm-5.2-4c.4-1.2 1.1-2.1 1.6-2.8.5-.6 1.8.5 1.4 1.1-.6 1.1-1 1.5-1.6 2.8-.2.7-1.6-.4-1.4-1.1z"/><path class="st1" d="M80.4 13c-2.3 1-4.4 2.4-6.2 4.1-1.3 3.6-2.7 7.1-4.3 10.6-.3.7-1.3-.4-1.4-.7-1.2-3.1.5-6.4 2.4-8.8.6-.8 1.3-1.5 2-2.2l.6-1.8c-1.4.9-2.6 2.2-4.1 2.8-.6.2-1.4-.7-1.3-1.3.4-1.7 1.3-3.4 2.7-4.4 1.1-.9 2.6-.6 3.4.5.1 0 .1 0 .2-.1.6-.1 1.4.7 1.3 1.3l-.3.9c1.6-.9 3-1.5 4.4-2.1.5-.4 1.3.9.6 1.2zm-8.2 6.1c-1.6 1.2-2.6 5-2.6 5.7.3-.7 2-4.2 2.6-5.7zm.9-6.9s-.5-.2-.6-.2c-.3.1-.7.5-1 .7-.4.3-1.3 1.5-1.6 1.9l.7-.1c.8-.6 1.8-1.6 2.5-2.3z"/><path class="st1" d="M91.6 13c-1.3 1-6.1 4.1-7.1 4.4-1 .2-1.9-.7-1.7-1.7.1-.6.4-1.6.7-2.1-1.6.9-3.2 2.4-4.4 3.9-.5.6-1.5-.7-1.4-1.2.4-1.4 1.2-3.2 1.9-4.5.4-.7 1.8.5 1.4 1.1 0 0 0 .1-.1.1 1.3-.9 2.6-1.5 4.1-2 .6-.2 1.5.8 1.2 1.4-.5.8-.9 1.6-1.3 2.4 1.9-1 4.1-1.9 6-2.8.8-.4 1.3.5.7 1z"/></g><path class="st1" d="M92.9 29.4c-1.2-.2-2.3-.4-3.5-.6-4.7-.7-9.5-1.3-14.2 0-.8.2-.3-1.4.3-1.6 3.3-.9 6.6-1 10-.7 1.7.2 3.4.4 5.1.7.9.1 1.8.3 2.6.4.2 0 .5.1.7.1l-.7-.7c-.6-.6-2.6-2.2-4.2-2.4-.7-.1-.1-1.7.6-1.6 2.2.4 7.4 4.6 6 6.1-.5 1-1.8.4-2.7.3zM64.4 27.7c-.1-.2-.2-.3-.4-.5-.1 0-.3-.1-.4-.1-.3.1-.7.2-1 .2-2.8.5-27.5.4-30.2.1-3-.3-28.4-1-31.4-1.3-.1 0-.2 0-.3.1-.4.2-.9 1.2-.5 1.6 1.6 1.3 3 2.9 4.2 4.6.6.8 1.1 1.6 1.5 2.5.3.5.8 1.6.4 2.2-.2.2-.5.8-.2 1.1.3.3.6 0 .8-.3 1.4-1.9.2-4-.8-5.8-.9-1.5-2-2.9-3.2-4.2 2 .2 26.5.8 28.5 1 2.7.3 27.2.3 29.9.1 1-.1 2.2-.2 3-.8 0-.1.1-.1.1-.2v-.3z"/></svg>