<svg version="1.1" id="Layer_1" xmlns="http://www.w3.org/2000/svg" x="0" y="0" viewBox="0 0 107 36" xml:space="preserve"><style>.st3{fill:#123d64}.st5{fill:#acdee1}</style><ellipse transform="matrix(1 -.00816 .00816 1 -.1461 .15)" cx="18.3" cy="18" rx="18.2" ry="17.9" fill="#00b3bb"/><path d="M27.1 3.9C25 2.5 22.6 1.6 20 1.3 11 .2 2.9 6.3 1.4 15 7.4 1.2 20.8 1.8 27.1 3.9z" fill="#66c6cb"/><path d="M9.5 32.2c2 1.3 4.4 2.1 7 2.4 8.8.9 16.6-5.2 17.9-13.7C28.8 34.3 15.6 34 9.5 32.2z" fill="#009b9b"/><path class="st3" d="M53.7 6.8c1.2 0 1.9.2 2.3.8.4.5.4 1.3.2 2.3l-.2 1c-.2 1-.7 1.8-1.3 2.3-.7.5-1.6.8-2.7.8h-6.3l-.7 2.9c-.1.2-.2.3-.4.3H43c-.2 0-.3-.1-.3-.3L45 7.3c.1-.3.3-.4.6-.4l8.1-.1zm-7.5 5.3H52c.5 0 .9-.1 1.2-.3.3-.2.4-.6.6-1l.1-.6c.1-.4.1-.8-.1-1-.2-.2-.5-.3-1-.3h-5.6c-.1 0-.2.1-.2.2l-.8 3zM65.3 8.9c.7 0 1.2 0 1.7.2.4.1.8.3 1 .5.2.2.3.6.4.9 0 .4 0 .8-.1 1.4l-.6 2.1c-.1.5-.3 1-.5 1.4-.2.4-.5.7-.8.9-.3.2-.7.4-1.2.5-.5.1-1.1.2-1.7.2h-4.3c-.7 0-1.2 0-1.7-.1-.4-.1-.8-.3-1-.5-.2-.2-.3-.6-.4-.9 0-.4 0-.8.1-1.4l.5-2.1c.1-.5.3-1 .5-1.4.2-.4.5-.7.8-.9.3-.2.7-.4 1.2-.5.6-.2 1.2-.2 1.9-.3h4.2zm-6.8 4.8c-.1.3-.1.6-.1.8 0 .2 0 .4.1.5.1.1.2.2.4.3.2.1.5.1.8.1h3.8c.3 0 .6 0 .8-.1.2-.1.4-.1.6-.3.2-.1.3-.3.4-.5.1-.2.2-.5.3-.8l.3-1.4c.1-.3.1-.6.1-.8 0-.2 0-.4-.1-.5-.1-.1-.2-.2-.4-.3-.2 0-.5-.1-.8-.1h-3.8c-.3 0-.6 0-.8.1-.2.1-.4.1-.6.3-.2.1-.3.3-.4.5-.1.2-.2.5-.3.8l-.3 1.4zM77.5 8.8c.7 0 1.2 0 1.7.2.4.1.8.3 1 .5.2.2.3.6.4.9 0 .4 0 .8-.1 1.4l-1.2 4.8c-.1.2-.2.3-.4.3h-1.5c-.2 0-.3-.1-.3-.3l1-4.3c.1-.3.1-.6.1-.8 0-.2 0-.4-.1-.5-.1-.1-.2-.2-.4-.3-.2-.1-.4-.1-.8-.1h-3.5c-.3 0-.6 0-.8.1-.2.1-.4.1-.6.3-.2.1-.3.3-.4.5-.1.2-.2.5-.3.8l-1 4.3c.1.3-.1.4-.3.4h-1.5c-.2 0-.3-.1-.3-.3l1.2-4.8c.1-.5.3-1 .5-1.4.2-.4.5-.7.8-.9.4-.3.8-.5 1.3-.6.5-.1 1.1-.2 1.8-.2h3.7zM83.5 8.8l.5-2c.1-.2.2-.3.4-.3h1.5c.2 0 .3.1.3.3l-.5 2-.4 1.8-.8 3.4c-.1.4-.1.7 0 .9.1.2.4.3.9.3h1.5c.2 0 .2.1.2.3l-.3 1.2c0 .2-.2.3-.3.3h-1.8c-.6 0-1.1 0-1.5-.2-.4-.1-.6-.3-.8-.5-.2-.2-.3-.5-.3-.9s.1-.8.2-1.4l.8-3.4h-1.4c-.2 0-.2-.1-.2-.3l.2-1.3c0-.2.2-.3.3-.3l1.5.1z"/><path class="st3" d="M96.6 8.6c.7 0 1.2 0 1.7.2.4.1.8.3 1 .5.2.2.3.6.4.9 0 .4 0 .8-.1 1.4l-.9 4c-.1.2-.1.4-.2.6s-.2.3-.3.4c-.1.1-.2.2-.4.2-.1 0-.3.1-.6.1L90 17c-.4 0-.8 0-1.1-.1-.3-.1-.5-.2-.6-.4-.2-.3-.3-.5-.3-.8 0-.3 0-.6.1-.9l.2-.9c.1-.3.2-.6.3-.8.1-.2.3-.4.5-.6.2-.2.5-.3.8-.4.3-.1.7-.1 1.1-.1l6.1-.1.1-.3c.1-.2 0-.3 0-.4 0-.2-.1-.3-.2-.4-.1-.1-.2-.2-.4-.2s-.5-.1-.8-.1l-11.3.1c-.2 0-.2-.1-.2-.3l.4-1.3c0-.2.2-.3.3-.3l11.6-.1zm-.6 6.6c.2 0 .3 0 .4-.1.1-.1.1-.2.2-.4l.3-1.3h-5.5c-.3 0-.5.1-.7.2-.2.1-.3.3-.3.5l-.1.3c-.1.3 0 .5 0 .6.1.1.3.2.6.2H96zM66.3 29.1c.2.2.4.3.8.4.4.1.9.2 1.6.1H73c.6 0 1.2-.1 1.7-.2.4-.1.8-.3 1.1-.5.3-.2.5-.5.7-.9.2-.4.4-.8.5-1.4l.6-2.3c.1-.5.2-1 .2-1.3 0-.3-.1-.6-.3-.8-.2-.2-.4-.3-.8-.4-.4-.1-.9-.2-1.6-.2h-4.3c-.7 0-1.2.1-1.7.2-.4.1-.8.3-1.1.5-.3.2-.5.5-.7.9-.2.4-.4.8-.5 1.4l-.6 2.4c-.1.5-.2 1-.2 1.3 0 .3.1.6.3.8zm1.4-2.8l.4-1.5c.1-.4.2-.7.3-.9.1-.3.3-.5.5-.7.2-.2.5-.3.7-.4.3-.1.5-.1.9-.1h3.8c.4 0 .7 0 .9.1.3.1.5.2.6.4.1.2.2.5.2.8 0 .3 0 .6-.1.9l-.4 1.5c-.1.4-.2.7-.3.9-.1.3-.3.5-.5.7-.2.2-.4.3-.7.4-.3.1-.6.1-.9.1h-3.8-.1c-.3 0-.6 0-.8-.1-.3-.1-.5-.2-.6-.4-.1-.2-.2-.5-.2-.8 0-.2 0-.5.1-.9zM87.6 29.5c0-.1 0-.1 0 0l1.3-5.2c.1-.5.2-1 .2-1.3 0-.3-.1-.6-.3-.8-.2-.2-.4-.3-.8-.4-.4-.1-.9-.2-1.6-.2h-3.8c-.7 0-1.2.1-1.7.2-.4.1-.8.3-1.1.5-.3.2-.5.5-.7.9-.2.4-.4.8-.5 1.4l-1.1 4.7c0 .2.1.3.3.3h1l1.1-4.6c.1-.4.2-.7.3-.9.1-.3.3-.5.5-.7.2-.2.4-.3.7-.4.3-.1.6-.1.9-.1h3.5c.4 0 .6 0 .9.1.3.1.5.2.6.4.1.2.2.5.2.8 0 .3-.1.6-.2.9l-1 4.1c0 .2.1.3.3.3h1zM55.9 19.6l-2.4 9.9c0 .1.1.3.2.3h1.2l.7-3.1c0-.2.2-.3.4-.3l6.2-.1c1.1 0 1.9-.3 2.4-.8.6-.5.9-1 1.2-2l.3-1.2c.2-1 .1-1.7-.2-2.2-.3-.4-.8-.8-1.8-.8H64l-8.1.1c.1.1 0 .1 0 .2zm.3 5l.8-3.2c.1-.3.3-.5.6-.5h5.6c.7 0 1.1.2 1.3.5.2.3.3.8.1 1.4l-.1.6c-.1.6-.4 1-.7 1.3-.3.3-.8.4-1.4.5l-5.8.1c-.1 0-.2-.1-.3-.2-.1-.3-.1-.4-.1-.5zM96.4 29.2c.2.1.6.1 1 .1l7.2-.1h.5c.1 0 .2-.1.2-.1.1-.1.1-.1.2-.3.1-.1.1-.3.2-.6l1-4.2c.1-.5.2-1 .2-1.3 0-.3-.1-.6-.3-.8-.2-.2-.4-.3-.8-.4-.4-.1-.9-.2-1.6-.2l-11.2.1-.3 1.1 10.8-.1h.9c.5 0 1.1.2 1 .7 0 .3-.3 1.2-.3 1.2 0 .2-.2.3-.4.3l-6.1.1c-.4 0-.8 0-1 .1-.3.1-.5.2-.7.3-.2.1-.3.3-.4.5-.1.2-.2.5-.3.8l-.2 1.2c-.1.4-.1.7-.1.9 0 .2 0 .3.1.5.1.1.2.2.4.2zm1-2l.1-.3c.1-.3.2-.6.5-.8.2-.2.5-.3.9-.3h5.5c.1 0 .2.1.3.2.1.1.1.2.1.3l-.3 1.3c-.1.3-.2.5-.3.6-.2.1-.4.2-.6.2h-5.1c-.4 0-.7-.1-.9-.3-.2-.3-.3-.5-.2-.9z"/><path class="st3" d="M91.3 29.3c.3.1.8.1 1.3.1h1.6c.1 0 .2-.1.2-.2l.1-.6c0-.2-.1-.3-.3-.3h-.9c-.6 0-1-.2-1.2-.5-.2-.3-.2-.7-.1-1.3l.9-3.7c0-.2.4-1.8.5-1.9l.4-1.6c0-.2-.1-.3-.3-.3h-1l-.5 2.2c0 .2-.2.3-.4.3h-1.2c-.1 0-.2.1-.2.2l-.1.6c0 .2.1.3.3.3h.9c.1 0 .2.1.3.2.1.1.1.2.1.3l-.9 3.7c-.1.5-.2 1-.2 1.4 0 .3.1.6.2.7 0 .1.2.3.5.4z"/><g><path d="M12.1 20.2s-1.3 7.5-1.4 7.5c-.2.8-.9 1.1-1.2 1-.5 0-1.4-.2-1.9-.4-1.1-.4-.9-1.5-.9-1.5s1.2-7.5 1.4-8.6c.1-.8.5-1.4 1-1.8 1.1-1 2.6-.8 4.8-.8 2.4-.1 10-.2 10-.2 1 0 1.3-1.4 1.3-1.4.2-.9 1-4.2 1-4.2s-9.6.5-9.7.5c-.6 0-1.3.5-1.6 1.2 0 .1-1.8 5.4-1.8 5.4l-1-.3s1.4-5.5 1.5-5.6c.2-.6.6-1.1 1.1-1.5.5-.4 1-.7 1.7-.8.4-.1 10.6-1.3 11.1-1.2 2.5-.1 2.4 1.8 2.3 2.2L28.3 15s-.8 3.4-4.3 3.4l-12.9-.6c-.5 0-1.5.3-1.7.9l-2 8.2s-.1.5.4.6h1.5c.2 0 .3-.1.4-.4.3-.8 1-4 1.7-6.9 0-.2.7 0 .7 0z" fill="#fff"/><path class="st5" d="M26.7 16.7c-.9.9-1.4 1.1-4.4 1-2.9-.1-10.6-.3-10.6-.3s-1.8-.1-2.3 1.1c.3-.5 1.1-.7 1.6-.7l13 .6c3.5 0 4.3-3.4 4.3-3.4l.7-2.9c-.8 2.4-1.5 3.9-2.3 4.6zM9.4 18.8c0 .1-.1.2-.1.3l.1-.3z"/><circle cx="11.7" cy="21.1" r="1.6" fill="#ffca05"/><path d="M13 20.3c0 .1.1.3.1.5 0 .9-.7 1.6-1.6 1.6-.6 0-1.1-.3-1.4-.8.2.6.8 1.1 1.5 1.1.9 0 1.6-.7 1.6-1.6 0-.3 0-.5-.2-.8z" fill="#daa827"/><path class="st5" d="M14.4 12.9c.1-.3.2-.5.3-.7l-.3.7zM14.9 11.5c.3-.6 1-1.1 1.6-1.1.1 0 9.7-.5 9.7-.5l.1-.3s-6.8.3-9 .4c-1.9.2-2.3 1.2-2.4 1.5zM9.8 28.3c-.8.1-1.9 0-2.7-.3.1.1.3.2.5.3.5.2 1.4.4 1.9.4.3 0 1-.2 1.2-1 0 0 .1-.4.2-.9-.2.6-.6 1.4-1.1 1.5z"/></g></svg>