<?xml version="1.0" encoding="utf-8"?>
<!-- Generator: Adobe Illustrator 24.0.1, SVG Export Plug-In . SVG Version: 6.00 Build 0)  -->
<svg version="1.1" id="Layer_1" xmlns="http://www.w3.org/2000/svg" xmlns:xlink="http://www.w3.org/1999/xlink" x="0px" y="0px"
	 viewBox="0 0 36.2 52.2" style="enable-background:new 0 0 36.2 52.2;" xml:space="preserve">
<g>
	<g>
		<path d="M18.2,34.2c5.5,0,10-4.5,10-10v-14c0-5.5-4.5-10-10-10s-10,4.5-10,10v14C8.2,29.7,12.7,34.2,18.2,34.2z M12.2,10.2
			c0-3.3,2.7-6,6-6s6,2.7,6,6v14c0,3.3-2.7,6-6,6s-6-2.7-6-6V10.2z"/>
		<path d="M36.2,24.2c0-1.1-0.9-2-2-2s-2,0.9-2,2c0,7.7-6.3,14-14,14s-14-6.3-14-14c0-1.1-0.9-2-2-2s-2,0.9-2,2
			c0,9.2,7,16.9,16,17.9v3.7v2.4h-6c-1.1,0-2,0.9-2,2s0.9,2,2,2h16c1.1,0,2-0.9,2-2s-0.9-2-2-2h-6V42C29.2,41,36.2,33.4,36.2,24.2z"
			/>
	</g>
</g>
</svg>
