<?xml version="1.0" encoding="utf-8"?>
<!-- Generator: Adobe Illustrator 23.0.1, SVG Export Plug-In . SVG Version: 6.00 Build 0)  -->
<svg version="1.1" id="Camada_1" xmlns="http://www.w3.org/2000/svg" xmlns:xlink="http://www.w3.org/1999/xlink" x="0px" y="0px"
	 viewBox="0 0 118 110.5" style="enable-background:new 0 0 118 110.5;" xml:space="preserve">
<g>
	<path d="M85.8,110.5L85.8,110.5c-6.4,0-29.4-2.1-56.5-29.2C6.5,58.4-1.9,41.4,0.4,22.4c0.3-2.5,0.9-5,1.9-7.6c0,0,0,0,0,0
		c1.1-2.7,2.5-5.3,4.3-7.6C6.7,7.1,6.7,7,6.8,6.9l2.3-2.4C12.1,1.6,15.9,0,20,0c4,0,7.8,1.6,10.7,4.4l8.8,8.8
		c2.9,2.9,4.4,6.7,4.4,10.7c0,4-1.6,7.8-4.4,10.7l-0.6,0.6c0,0-0.1,0.1-0.1,0.1l-3.5,3.3c2.9,4.9,9.2,13.9,16,20.7
		c6.9,6.9,16.2,13.3,21,16.2l4-4C79.1,68.6,82.9,67,87,67c4,0,7.8,1.6,10.7,4.4l8.4,8.4c2.9,2.9,4.4,6.7,4.4,10.8
		c0,4.1-1.6,7.9-4.5,10.7l-2.4,2.3c-0.1,0.1-0.2,0.2-0.3,0.3c-2.2,1.8-4.9,3.3-7.6,4.3c-2.9,1.1-5.5,1.8-7.8,2.1
		C87.7,110.4,87,110.5,85.8,110.5 M9.2,17.5c-0.8,2-1.2,3.9-1.5,5.8c0,0,0,0,0,0C5.8,39.7,13.5,55,34.5,76
		C59.6,101.1,80.1,103,85.8,103h0c0.9,0,1.3,0,1.3,0c1.7-0.2,3.6-0.7,6-1.6c2-0.8,3.9-1.8,5.5-3.1l2.2-2.2c1.5-1.4,2.3-3.4,2.3-5.4
		c0-2.1-0.8-4-2.2-5.5l-8.4-8.4C91,75.3,89,74.5,87,74.5c-2.1,0-4,0.8-5.4,2.2l-6,6c-1.2,1.2-3,1.4-4.4,0.6
		c-0.2-0.1-0.4-0.2-0.6-0.3c-0.3-0.2-0.7-0.4-1.1-0.6c-5.1-2.8-15.5-9.9-23.5-17.9c-8-8-15.2-18.6-17.9-23.5c-0.2-0.4-0.4-0.7-0.5-1
		c-0.1-0.1-0.1-0.3-0.2-0.4c-0.8-1.5-0.5-3.3,0.7-4.5l5.6-5.2l0.5-0.5c1.4-1.4,2.2-3.4,2.2-5.4s-0.8-4-2.2-5.4l-8.8-8.8
		C23.9,8.2,22,7.4,20,7.4c-2.1,0-4,0.8-5.5,2.3L12.3,12C11.1,13.6,10,15.5,9.2,17.5"/>
	<path d="M93,55.8c-1,0-2-0.2-3-0.7c-2.2-1.1-3.6-3.3-3.6-5.8h-18c-5.6,0-10.2-4.6-10.2-10.2v-6.9c0-5.6,4.6-10.2,10.2-10.2h2.4
		c2.1,0,3.7,1.7,3.7,3.7c0,2.1-1.7,3.7-3.7,3.7h-2.4c-1.5,0-2.7,1.2-2.7,2.7v6.9c0,1.5,1.2,2.7,2.7,2.7h21.8c2.1,0,3.7,1.7,3.7,3.7
		v1.9L110,35.7L93.9,23.9v1.9c0,2.1-1.7,3.7-3.7,3.7h-6c-2.1,0-3.7-1.7-3.7-3.7c0-2.1,1.7-3.7,3.7-3.7h2.3c0-2.5,1.4-4.7,3.6-5.8
		c2.2-1.1,4.8-0.9,6.8,0.6l18.5,13.6c1.7,1.2,2.7,3.2,2.7,5.3c0,2.1-1,4-2.7,5.3L96.8,54.5C95.7,55.4,94.3,55.8,93,55.8"/>
</g>
</svg>
