<?xml version="1.0" encoding="utf-8"?>
<!-- Generator: Adobe Illustrator 24.0.1, SVG Export Plug-In . SVG Version: 6.00 Build 0)  -->
<svg version="1.1" id="Layer_1" xmlns="http://www.w3.org/2000/svg" xmlns:xlink="http://www.w3.org/1999/xlink" x="0px" y="0px"
	 viewBox="0 0 119.5 113.5" style="enable-background:new 0 0 119.5 113.5;" xml:space="preserve">
<path d="M87.2,111.8L87.2,111.8c-6.4,0-29.4-2.1-56.5-29.2C7.9,59.7-0.4,42.7,1.8,23.7c0.3-2.5,0.9-5,1.9-7.6c0,0,0,0,0,0
	c1.1-2.7,2.5-5.3,4.3-7.6c0.1-0.1,0.2-0.2,0.3-0.3l2.3-2.4c2.9-2.9,6.7-4.5,10.8-4.5c4,0,7.8,1.6,10.7,4.4l8.8,8.8
	c2.9,2.9,4.4,6.7,4.4,10.7c0,4-1.6,7.8-4.4,10.7l-0.6,0.6c0,0-0.1,0.1-0.1,0.1l-3.5,3.3c2.9,4.9,9.2,13.9,16,20.7
	c6.9,6.9,16.2,13.3,21,16.2l4-4c2.9-2.9,6.7-4.4,10.7-4.4c4,0,7.8,1.6,10.7,4.4l8.4,8.4c2.9,2.9,4.4,6.7,4.4,10.8
	c0,4.1-1.6,7.9-4.5,10.7l-2.4,2.3c-0.1,0.1-0.2,0.2-0.3,0.3c-2.2,1.8-4.9,3.3-7.6,4.3c-2.9,1.1-5.5,1.8-7.8,2.1
	C89.2,111.7,88.5,111.8,87.2,111.8L87.2,111.8z M10.7,18.8c-0.8,2-1.2,3.9-1.5,5.8c0,0,0,0,0,0C7.3,41,15,56.3,36,77.3
	c25.1,25.1,45.6,27.1,51.2,27.1h0c0.9,0,1.3,0,1.3,0c1.7-0.2,3.6-0.7,6-1.6c2-0.8,3.9-1.8,5.5-3.1l2.2-2.2c1.5-1.4,2.3-3.4,2.3-5.4
	c0-2.1-0.8-4-2.2-5.5L93.9,78c-1.4-1.5-3.4-2.2-5.4-2.2c-2,0-4,0.8-5.4,2.2l-6,6c-1.2,1.2-3,1.4-4.4,0.6c-0.2-0.1-0.4-0.2-0.6-0.3
	c-0.3-0.2-0.7-0.4-1.1-0.6c-5.1-2.8-15.5-9.9-23.5-17.9c-8-8-15.2-18.6-17.9-23.5c-0.2-0.4-0.4-0.7-0.5-1c-0.1-0.1-0.1-0.3-0.2-0.4
	c-0.8-1.5-0.5-3.3,0.7-4.5l5.6-5.2l0.5-0.5c1.4-1.5,2.2-3.4,2.2-5.4s-0.8-4-2.2-5.4L26.9,11c-1.4-1.4-3.4-2.2-5.4-2.2
	c-2.1,0-4,0.8-5.5,2.3l-2.2,2.2C12.5,14.9,11.5,16.8,10.7,18.8L10.7,18.8z M10.7,18.8"/>
<path d="M94.5,57.1c-1,0-2-0.2-3-0.7c-2.2-1.1-3.6-3.3-3.6-5.8h-18c-5.6,0-10.2-4.6-10.2-10.2v-6.9c0-5.6,4.6-10.2,10.2-10.2h2.4
	c2.1,0,3.7,1.7,3.7,3.7c0,2.1-1.7,3.7-3.7,3.7h-2.4c-1.5,0-2.7,1.2-2.7,2.7v6.9c0,1.5,1.2,2.7,2.7,2.7h21.8c2.1,0,3.7,1.7,3.7,3.7
	v1.9L111.4,37L95.3,25.2v1.9c0,2.1-1.7,3.7-3.7,3.7h-6c-2.1,0-3.7-1.7-3.7-3.7c0-2.1,1.7-3.7,3.7-3.7h2.3c0-2.5,1.4-4.7,3.6-5.8
	c2.2-1.1,4.8-0.9,6.8,0.6l18.5,13.6c1.7,1.2,2.7,3.2,2.7,5.3c0,2.1-1,4.1-2.7,5.3L98.3,55.8C97.2,56.7,95.8,57.1,94.5,57.1
	L94.5,57.1z M94.5,57.1"/>
</svg>
