<?xml version="1.0" encoding="utf-8"?>
<!-- Generator: Adobe Illustrator 24.0.1, SVG Export Plug-In . SVG Version: 6.00 Build 0)  -->
<svg version="1.1" id="Layer_1" xmlns="http://www.w3.org/2000/svg" xmlns:xlink="http://www.w3.org/1999/xlink" x="0px" y="0px"
	 viewBox="0 0 68.3 95.4" style="enable-background:new 0 0 68.3 95.4;" xml:space="preserve">
<title>Pin</title>
<path d="M34.1,0C15.2,0,0,14.5,0,32.4c0,6.9,6.8,20.4,7.2,21l20.2,37.7c2.1,3.7,6.8,5,10.5,2.9c1.2-0.7,2.2-1.7,2.9-2.9L61,53.4
	c0.3-0.6,7.2-14.1,7.2-21C68.2,14.5,52.9,0,34.1,0z M33.2,46.1c-7.6,0-13.8-5.8-13.8-13.1S25.6,20,33.2,20S47,25.9,47,33.1
	S40.8,46.1,33.2,46.1z"/>
</svg>
