<?xml version="1.0" encoding="utf-8"?>
<!-- Generator: Adobe Illustrator 24.0.1, SVG Export Plug-In . SVG Version: 6.00 Build 0)  -->
<svg version="1.1" id="Layer_1" xmlns="http://www.w3.org/2000/svg" xmlns:xlink="http://www.w3.org/1999/xlink" x="0px" y="0px"
	 viewBox="0 0 90.1 90.1" style="enable-background:new 0 0 90.1 90.1;" xml:space="preserve">
<title>gly</title>
<path d="M72.8,62C85,43.7,80.2,19,62,6.8S19-0.6,6.8,17.6s-7.4,42.9,10.8,55.2c13.4,9,30.9,9,44.4,0l15,15c3,3,7.8,3,10.8,0
	s3-7.8,0-10.8L72.8,62z M39.8,70.4c-16.9,0-30.5-13.7-30.5-30.5c0-16.9,13.7-30.5,30.5-30.5c16.9,0,30.5,13.7,30.5,30.5
	C70.3,56.7,56.7,70.3,39.8,70.4z"/>
</svg>
