<?xml version="1.0" encoding="utf-8"?>
<!-- Generator: Adobe Illustrator 24.0.1, SVG Export Plug-In . SVG Version: 6.00 Build 0)  -->
<svg version="1.1" id="Layer_1" xmlns="http://www.w3.org/2000/svg" xmlns:xlink="http://www.w3.org/1999/xlink" x="0px" y="0px"
	 viewBox="0 0 755.4 651.6" style="enable-background:new 0 0 755.4 651.6;" xml:space="preserve">
<style type="text/css">
	.st0{fill-rule:evenodd;clip-rule:evenodd;}
</style>
<g>
	<path d="M516,14c10,3,20,6,30,10l0,0c10,4,20,8,29,13c9,4,19,9,27,15l0,0c10,6,18,12,27,18c8,6,16,13,24,21c8,7,15,14,22,22
		s13,17,20,25l0,0c6,9,12,18,17,27s10,18,14,28l0,0c5,10,9,20,12,30l0,0c3,10,6,20,9,30c2,11,4,21,5,31l0,0c2,11,3,22,3,32l0,0
		c0,11,0,21-1,31c0,11-2,21-3,32l0,0c-2,11-4,21-7,31s-6,20-10,30l0,0c-3,10-8,20-12,29c-5,9-10,19-16,28l0,0c-5,9-11,17-18,26l0,0
		c-6,8-13,16-20,24s-15,15-23,22s-16,14-25,20l0,0c-9,6-18,12-26,17l-5,3l0,0c-8,4-16,8-24,12c-10,4-20,8-29,11l0,0c-10,4-20,6-31,9
		l0,0c-10,2-20,4-31,6h-2h-1c-9,1-19,2-29,2l0,0c-10,0-21,0-31,0c-10-1-21-2-32-4l0,0c-10-2-21-4-31-7c-6-1-12-3-19-6l0,0
		c-6-2-13-4-19-7c-7-2-13-5-19-8s-12-6-18-10c-6-3-11-6-15-9l0,0c-5-3-9-5-13-8l0,0l-2-2c-4-3-9-6-13-10c-3-2-6-4-9-7l-156,7H53
		l-16,1H26l-22,1l11-19l5-10l0,0l7-12l0,0l1-1l6-11l0,0l81-140c-1-4-2-8-2-11l-1-8l0,0l-1-5v-3l0,0c-1-6-1-12-2-17l1-1
		c-1-5-1-11-1-17l0,0c0-7,0-14,1-21l0,0c0-6,1-13,2-20s2-14,3-21c2-7,3-14,5-20c3-10,6-20,10-30l0,0c4-11,8-20,12-29
		c5-10,10-19,16-28l0,0c5-9,11-18,18-26l0,0c6-9,13-17,20-24c8-8,15-15,23-22l0,0c8-7,16-14,25-20c9-7,18-12,27-17c9-6,18-10,28-15
		l0,0c9-4,19-8,29-11c10-4,20-7,31-9c10-3,21-5,31-6s21-2,32-2V3c10,0,21,0,31,1c11,1,21,2,32,4l0,0C495,9,506,12,516,14z M223,503
		h12h4l0,0h2l5-1l4,4l2,2l3,2c4,4,8,8,12,11c4,4,8,7,12,10l0,0c4,3,9,6,14,9c4,4,9,6,13,9c5,2,10,5,15,7l0,0c3,2,7,4,10,5l0,0h1l3,2
		c5,2,11,4,15,5c5,2,10,3,16,5c8,2,17,4,25,5c8,2,16,3,25,3c8,1,16,1,25,1l0,0c8-1,16-1,24-2l0,0c9-1,17-3,25-5s16-4,24-7
		c8-2,16-5,23-9c8-3,15-7,23-11c7-5,14-9,21-14s13-10,20-16c6-5,12-11,18-17c5-6,11-12,16-19s10-14,14-21s8-14,12-22c4-7,7-15,10-23
		c3-7,5-15,8-24c2-8,4-16,5-24s2-17,3-25s1-17,0-25c0-8,0-15-1-23l-1-2c-1-8-2-16-4-25c-2-8-4-16-7-24s-6-15-9-23c-3-7-7-15-12-22
		c-8-15-18-29-29-41c-10-12-22-23-34-33l0,0l-2-1c-7-5-14-10-21-15c-7-4-14-8-22-12c-7-3-15-7-23-10c-7-2-15-5-24-7c-8-3-17-4-24-6
		c-9-1-17-2-25-3c-9,0-17,0-25,0c-9,0-17,1-25,2c-9,1-17,3-25,4c-8,2-16,5-24,7c-8,3-16,6-23,10c-8,3-15,7-23,11l0,0l0,0
		c-7,4-14,9-21,14s-13,10-20,15c-6,6-12,12-17,18c-6,6-12,12-17,19l-2,3c-4,5-8,11-12,17c-4,7-8,15-12,22c-4,8-7,16-10,23
		c-3,8-5,16-8,24c-1,6-2,11-3,16s-2,10-3,16s-1,11-2,16c0,5,0,11,0,16l0,0c-1,5,0,11,0,16s1,11,1,16c1,5,2,10,3,16c1,5,2,10,3,15
		l1,3v1l0,0v2l1,5l-2,4l-1,2l0,0l-1,2l0,0l-1,1l-9,17l-8,13l-11,20l0,0l-30,51l94-4l5-1l0,0H223L223,503L223,503z"/>
	<path class="st0" d="M331,130c-54,23-71,72-61,127c6,33,18,66,39,106s48,78,77,108c78,80,204,66,162-4c-21-33-33-60-33-60
		s-9-19-27-8c-19,12-37,25-46,23c-14-2-124-143-82-165c19-9,52-20,38-43c-10-17-46-78-46-78S345,123,331,130z"/>
</g>
</svg>
