<?xml version="1.0" encoding="utf-8"?>
<!-- Generator: Adobe Illustrator 24.0.1, SVG Export Plug-In . SVG Version: 6.00 Build 0)  -->
<svg version="1.1" id="ad1dd13e-2ec4-4c24-88e7-d38d592282c0"
	 xmlns="http://www.w3.org/2000/svg" xmlns:xlink="http://www.w3.org/1999/xlink" x="0px" y="0px" viewBox="0 0 445.4 420.3"
	 style="enable-background:new 0 0 445.4 420.3;" xml:space="preserve">
<style type="text/css">
	.st0{fill:#E6E7E8;}
	.st1{fill:#FFFFFF;}
	.st2{fill:url(#SVGID_1_);}
	.st3{fill:url(#SVGID_2_);}
	.st4{fill:#1FC3F3;}
	.st5{fill:none;stroke:#1FC3F3;stroke-width:2.8409;stroke-miterlimit:10;}
	.st6{fill:none;stroke:#1FC3F3;stroke-width:2.8409;stroke-miterlimit:10;stroke-dasharray:6.5568,6.5568;}
	.st7{fill:none;stroke:#1FC3F3;stroke-width:2.8409;stroke-miterlimit:10;stroke-dasharray:6.5057,6.5057;}
	.st8{fill:none;stroke:#1FC3F3;stroke-width:2.8409;stroke-miterlimit:10;stroke-dasharray:6.8181;enable-background:new    ;}
	.st9{opacity:0.5;}
	.st10{fill:#F5F5F6;}
	.st11{fill:url(#SVGID_3_);}
	.st12{opacity:5.000000e-02;enable-background:new    ;}
	.st13{fill:#FAC3BF;}
	.st14{fill:#113C64;}
	.st15{fill:#FCD1C6;}
	.st16{fill:#27C1EB;}
	.st17{fill:#103E64;}
	.st18{fill:url(#SVGID_4_);}
</style>
<g>
	<rect x="84" y="5.7" class="st0" width="226.9" height="310.4"/>
</g>
<rect x="88.7" y="9.9" class="st1" width="217.6" height="301.7"/>
<linearGradient id="SVGID_1_" gradientUnits="userSpaceOnUse" x1="135.4023" y1="490.5021" x2="135.4023" y2="537.0928" gradientTransform="matrix(1 0 0 -1 0 675.8898)">
	<stop  offset="0" style="stop-color:#808080;stop-opacity:0.25"/>
	<stop  offset="0.54" style="stop-color:#808080;stop-opacity:0.12"/>
	<stop  offset="1" style="stop-color:#808080;stop-opacity:0.1"/>
</linearGradient>
<rect x="112.1" y="138.8" class="st2" width="46.6" height="46.6"/>
<linearGradient id="SVGID_2_" gradientUnits="userSpaceOnUse" x1="135.5614" y1="399.3093" x2="135.5614" y2="445.9" gradientTransform="matrix(1 0 0 -1 0 675.8898)">
	<stop  offset="0" style="stop-color:#808080;stop-opacity:0.25"/>
	<stop  offset="0.54" style="stop-color:#808080;stop-opacity:0.12"/>
	<stop  offset="1" style="stop-color:#808080;stop-opacity:0.1"/>
</linearGradient>
<rect x="112.3" y="230" class="st3" width="46.6" height="46.6"/>
<rect x="113.7" y="139.6" class="st4" width="43.2" height="43.2"/>
<rect x="113.7" y="231.1" class="st4" width="43.2" height="43.2"/>
<g>
	<rect x="182.7" y="244.5" class="st0" width="59.2" height="4.1"/>
	<rect x="182.7" y="251.9" class="st0" width="97.7" height="4.1"/>
	<rect x="182.7" y="259.4" class="st0" width="90.8" height="4.1"/>
</g>
<g>
	<rect x="182.7" y="152.5" class="st0" width="59.2" height="4.1"/>
	<rect x="182.7" y="160" class="st0" width="97.7" height="4.1"/>
	<rect x="182.7" y="167.5" class="st0" width="90.8" height="4.1"/>
</g>
<polygon class="st1" points="126.7,159.5 133.5,165.8 143.2,151.6 146.6,154.4 133.5,171.5 123.9,160.7 "/>
<polygon class="st1" points="126.7,251.6 133.5,257.8 143.2,243.6 146.6,246.5 133.5,263.5 123.9,252.7 "/>
<g>
	<line class="st5" x1="316.8" y1="175.8" x2="320.2" y2="175.8"/>
	<line class="st6" x1="326.7" y1="175.8" x2="402.1" y2="175.8"/>
	<polyline class="st5" points="405.4,175.8 408.8,175.8 408.8,172.4 	"/>
	<line class="st7" x1="408.8" y1="165.9" x2="408.8" y2="104"/>
	<line class="st5" x1="408.8" y1="100.8" x2="408.8" y2="97.4"/>
</g>
<polyline class="st8" points="78.4,80.1 2.3,80.1 2.3,151.6 "/>
<polyline class="st8" points="122.2,323.8 122.2,364.7 235.8,364.7 "/>
<g class="st9">
	<polygon class="st10" points="443.2,37.2 399.4,0.2 356.3,37.1 356,36.9 356,37.2 355.7,37.2 356,37.4 356,37.5 356,85.4 356,86 
		442.9,86 442.4,85.7 443.2,85.7 	"/>
</g>
<polyline class="st0" points="357.4,37.4 398.9,60.7 440.9,37.4 "/>
<g class="st9">
	
		<linearGradient id="SVGID_3_" gradientUnits="userSpaceOnUse" x1="399.4465" y1="599.5292" x2="399.4465" y2="660.3243" gradientTransform="matrix(1 0 0 -1 0 675.8898)">
		<stop  offset="0" style="stop-color:#808080;stop-opacity:0.25"/>
		<stop  offset="0.54" style="stop-color:#808080;stop-opacity:0.12"/>
		<stop  offset="1" style="stop-color:#808080;stop-opacity:0.1"/>
	</linearGradient>
	<polygon class="st11" points="399.7,60.2 374.2,76.4 374.2,15.6 424.7,15.6 424.7,46.5 	"/>
</g>
<polygon class="st1" points="399.7,60.5 375.3,76.4 375.3,16.7 423.6,16.7 423.6,47 "/>
<polygon class="st12" points="357.7,83.7 441.2,83.7 357.7,37.2 "/>
<polygon class="st0" points="357.7,84.3 441.2,84.3 357.7,37.7 "/>
<rect x="381.5" y="25.8" class="st4" width="35.2" height="2.3"/>
<rect x="381.5" y="30.3" class="st1" width="35.2" height="2.3"/>
<rect x="381.5" y="34.9" class="st4" width="35.2" height="2.3"/>
<rect x="381.5" y="39.4" class="st1" width="35.2" height="2.3"/>
<rect x="381.5" y="44" class="st4" width="35.2" height="2.3"/>
<polygon class="st12" points="423.6,47.4 423.6,46.2 398.7,60.1 399.4,60.4 "/>
<g id="Group_30" transform="translate(282.246 224.353)">
	<path id="Path_944" class="st10" d="M55.8,145.8c0,8.8-2.5,17.3-7.3,24.7c-1,1.5-2.1,3-3.3,4.4c-2.8,3.3-6.1,6.2-9.7,8.6
		c-1,0.7-2,1.3-3,1.8c-5.4,3-11.4,4.8-17.5,5.4c-1.4,0.1-2.8,0.2-4.3,0.2c-3.9,0-7.8-0.5-11.6-1.5c-2.2-0.6-4.3-1.3-6.3-2.2
		c-1-0.5-2.1-0.9-3.1-1.5c-2.4-1.3-4.7-2.7-6.8-4.4c-1-0.8-1.9-1.6-2.9-2.4c-18.3-16.9-19.4-45.5-2.4-63.8s45.5-19.4,63.8-2.4
		C50.6,121.2,55.8,133.2,55.8,145.8L55.8,145.8z"/>
	<path id="Path_945" class="st13" d="M-0.2,149.9c0,0,4.1,11.4,0.9,17.8s5,13.7,5,13.7s21.5-11,18.7-16.4
		c-2.7-5.5-7.3-12.8-6.4-17.3L-0.2,149.9z"/>
	<ellipse id="Ellipse_185" class="st13" cx="7.7" cy="139.6" rx="14.6" ry="14.6"/>
	<path id="Path_946" class="st4" d="M-1,189.4c-2.2-0.6-4.3-1.3-6.3-2.2l0.4-11.1l4.1-9.1c0.9,0.7,1.9,1.4,3,1.9
		c0.2,0.1,0.5,0.3,0.8,0.4c3.9,1.9,10.1,3.5,16.2-1.1c2.2-1.7,4.1-3.9,5.6-6.3l11.4,6.5l0.6,7l0.7,8.1c-1,0.7-2,1.3-3,1.8
		c-5.4,3-11.4,4.8-17.5,5.4c-1.4,0.1-2.8,0.2-4.3,0.2C6.8,190.9,2.8,190.4-1,189.4z"/>
	<path id="Path_947" class="st4" d="M1.8,160.1L1.8,160.1l-0.6,6L1,169.3L0.5,174L-1,189.4c-2.2-0.6-4.3-1.3-6.3-2.2
		c-1-0.5-2.1-0.9-3.1-1.5c-2.4-1.3-4.7-2.7-6.8-4.4l-1.6-7.5l0.1-0.1L1.8,160.1z"/>
	<path id="Path_948" class="st4" d="M32.5,185.3c-5.4,3-11.4,4.8-17.5,5.4c0.3-5.5,0.8-10.9,1.4-15.7c0.3-2.4,0.6-4.7,0.9-6.8
		c1-6.7,2.1-11.3,2.8-11.9l5,3.3l20.5,7.3l-0.4,7.9c-2.8,3.3-6.1,6.2-9.7,8.6C34.5,184.1,33.5,184.7,32.5,185.3z"/>
	<path id="Path_949" class="st4" d="M-17.1,181.3c-1-0.8-1.9-1.6-2.9-2.4l0.8-5.1l0.6-0.1l2.6-0.4l5.7,12.4
		C-12.7,184.5-15,183-17.1,181.3L-17.1,181.3z"/>
	<path id="Path_950" class="st4" d="M48.5,170.4c-1,1.5-2.1,3-3.3,4.4c-2.8,3.3-6.1,6.2-9.7,8.6c-1,0.7-2,1.3-3,1.8l-0.5-2.4
		l2.9-7.6l3.5-9.3l7.3,0.9C46.6,168.1,47.6,169.2,48.5,170.4z"/>
	<path id="Path_951" class="st14" d="M21.7,126.4c-2.2-3.6-5.7-6.2-9.7-7.4l-3,2.4l1.2-2.8c-1-0.1-2-0.2-2.9-0.2l-2.7,3.4l1.1-3.3
		c-4.7,0.6-8.9,3.1-11.7,6.9c-3.4,4.9-4,11.7-0.6,16.7c0.9-2.8,2-5.5,2.9-8.3c0.7,0.1,1.5,0.1,2.2,0l1.1-2.6l0.3,2.5
		c3.5-0.3,8.6-1,11.9-1.6l-0.3-1.9l1.9,1.6c1-0.2,1.6-0.4,1.6-0.6c2.4,3.9,4.9,6.4,7.3,10.4C23.2,136,24.8,131.4,21.7,126.4z"/>
	<ellipse id="Ellipse_186" class="st15" cx="20.9" cy="139.1" rx="1" ry="2"/>
</g>
<g>
	<g>
		<path class="st16" d="M166.4,48.6l3.5-1.6c0.5-0.2,1.1,0.2,1,0.7l-0.4,8.3c0,0.8-1.1,1-1.4,0.3l-3.1-6.8
			C165.8,49.2,166,48.8,166.4,48.6z"/>
		<path class="st16" d="M162.3,55.2l5.1,6.9c0.4,0.6-0.2,1.4-0.8,1.1l-6.8-2.7c-0.4-0.1-0.6-0.6-0.4-0.9l1.7-4.2
			C161.2,54.8,161.9,54.7,162.3,55.2z"/>
	</g>
	<g>
		<path class="st17" d="M212.9,54.1l1.8,1.4l1.8-2.4c0.1-0.1,0.2-0.1,0.3,0l1.5,1.2c0.1,0.1,0.2,0,0.3,0l2.3-3.2
			c0.1-0.1,0-0.2,0-0.3l-5.2-3.8c-0.1-0.1-0.2,0-0.3,0l-2.3,3c-0.1,0.1,0,0.2,0,0.3l1.5,1.2c0.1,0.1,0.1,0.2,0,0.2L212.9,54.1z"/>
		<path class="st17" d="M192.2,49.2l8.9,0l0-2.4l2.9,0.1l-0.1-5.6c0-1-0.8-1.8-1.9-1.8L191,39.5c-1,0-1.8,0.8-1.8,1.8l0,5.6l3-0.1
			L192.2,49.2z"/>
		<g>
			<circle class="st1" cx="197.2" cy="76.4" r="22.5"/>
			<path class="st17" d="M202.4,50.8c-14.1-2.9-27.9,6.2-30.8,20.4s6.2,27.9,20.4,30.8c14.1,2.9,27.9-6.2,30.8-20.4
				C225.7,67.5,216.6,53.7,202.4,50.8z M193.4,96.9c-11.6-2.2-19.2-13.5-16.6-25.1c2.4-10.9,13.2-18,24.1-16
				c11.6,2.2,19.2,13.5,16.6,25.1C215.2,91.8,204.4,98.9,193.4,96.9z"/>
		</g>
		<path class="st16" d="M195,82.4l2.3-2.9c0.3,0,0.6,0,0.8-0.1c1.4-0.4,2.3-1.9,1.9-3.4l8.3-10.5l-0.5-0.5L198,74
			c-0.5-0.1-1-0.1-1.5,0c-1.4,0.4-2.2,1.7-2,3.1l-2.8,2.5L195,82.4z"/>
		<g>
			<path class="st17" d="M186.6,92.2l1.8,1.1c0,0,0.1,0,0.1,0l2.4-3.9c0,0,0-0.1,0-0.1l-1.8-1.1c0,0-0.1,0-0.1,0l-2.4,3.9
				C186.6,92.1,186.6,92.2,186.6,92.2z"/>
			<path class="st17" d="M203.7,63.3l1.8,1.1c0,0,0.1,0,0.1,0l2.4-3.9c0,0,0-0.1,0-0.1l-1.8-1.1c0,0-0.1,0-0.1,0l-2.4,3.9
				C203.7,63.2,203.7,63.3,203.7,63.3z"/>
			<path class="st17" d="M180.1,84.8l1,1.8c0,0,0.1,0.1,0.1,0l4-2.2c0,0,0.1-0.1,0-0.1l-1-1.8c0,0-0.1-0.1-0.1,0l-4,2.2
				C180.1,84.8,180.1,84.8,180.1,84.8z"/>
			<path class="st17" d="M214.5,67.7l-1-1.8c0,0-0.1-0.1-0.1,0l-4,2.2c0,0-0.1,0.1,0,0.1l1,1.8c0,0,0.1,0.1,0.1,0l4-2.2
				C214.5,67.8,214.5,67.7,214.5,67.7z"/>
			<path class="st17" d="M182.8,75.1l-4.6-0.1c0,0-0.1,0-0.1,0.1l0,2.1c0,0,0,0.1,0.1,0.1l4.6,0.1c0,0,0.1,0,0.1-0.1L182.8,75.1
				C182.9,75.2,182.8,75.1,182.8,75.1z"/>
			<path class="st17" d="M211.8,77.4l4.6,0.1c0,0,0.1,0,0.1-0.1l0-2.1c0,0,0-0.1-0.1-0.1l-4.6-0.1c0,0-0.1,0-0.1,0.1L211.8,77.4
				C211.7,77.4,211.7,77.4,211.8,77.4z"/>
			<path class="st17" d="M185.4,67.9l-3.9-2.4c0,0-0.1,0-0.1,0l-1.1,1.8c0,0,0,0.1,0,0.1l3.9,2.4c0,0,0.1,0,0.1,0l1.1-1.8
				C185.5,68,185.4,67.9,185.4,67.9z"/>
			<path class="st17" d="M209.2,84.7l3.9,2.4c0,0,0.1,0,0.1,0l1.1-1.8c0,0,0-0.1,0-0.1l-3.9-2.4c0,0-0.1,0-0.1,0l-1.1,1.8
				C209.1,84.6,209.1,84.6,209.2,84.7z"/>
			<path class="st17" d="M187,60.1l2.2,4c0,0,0.1,0.1,0.1,0l1.8-1c0,0,0.1-0.1,0-0.1l-2.2-4c0,0-0.1-0.1-0.1,0l-1.8,1
				C187,60,187,60.1,187,60.1z"/>
			<path class="st17" d="M203.4,89.5l2.2,4c0,0,0.1,0.1,0.1,0l1.8-1c0,0,0.1-0.1,0-0.1l-2.2-4c0,0-0.1-0.1-0.1,0l-1.8,1
				C203.4,89.4,203.4,89.4,203.4,89.5z"/>
			<path class="st17" d="M196.4,57.2l-0.1,4.6c0,0,0,0.1,0.1,0.1l2.1,0c0,0,0.1,0,0.1-0.1l0.1-4.6c0,0,0-0.1-0.1-0.1L196.4,57.2
				C196.5,57.1,196.4,57.1,196.4,57.2z"/>
			<path class="st17" d="M196,90.8l-0.1,4.6c0,0,0,0.1,0.1,0.1l2.1,0c0,0,0.1,0,0.1-0.1l0.1-4.6c0,0,0-0.1-0.1-0.1L196,90.8
				C196,90.7,196,90.7,196,90.8z"/>
		</g>
	</g>
	<g>
		<path class="st16" d="M217.4,107.8l0.8-4.8c0.1-0.5,0.8-0.5,0.9-0.1l1.1,3.7c0.1,0.2,0,0.4-0.2,0.5l-1.9,1.1
			C217.8,108.5,217.3,108.2,217.4,107.8z"/>
		<path class="st16" d="M226.2,111.3l-5.3-11.7c-0.2-0.5,0.3-0.9,0.7-0.5l10.5,8.8c0.2,0.2,0.2,0.6-0.1,0.8l-5.2,2.9
			C226.6,111.6,226.3,111.5,226.2,111.3z"/>
		
			<linearGradient id="SVGID_4_" gradientUnits="userSpaceOnUse" x1="2039.7991" y1="-1563.285" x2="2045.9425" y2="-1563.285" gradientTransform="matrix(0.3354 -0.9421 0.9421 0.3354 1018.1927 2544.9575)">
			<stop  offset="0" style="stop-color:#27C1EB"/>
			<stop  offset="1" style="stop-color:#27C1EB"/>
		</linearGradient>
		<path class="st18" d="M224.9,95.5l10.2-1.1c0.3,0,0.5,0.2,0.5,0.5l0,5.5c0,0.3-0.3,0.6-0.7,0.4l-10.2-4.4
			C224.3,96.2,224.4,95.5,224.9,95.5z"/>
	</g>
</g>
</svg>
