<?xml version="1.0" encoding="utf-8"?>
<!-- Generator: Adobe Illustrator 24.0.1, SVG Export Plug-In . SVG Version: 6.00 Build 0)  -->
<svg version="1.1" id="ad1dd13e-2ec4-4c24-88e7-d38d592282c0"
	 xmlns="http://www.w3.org/2000/svg" xmlns:xlink="http://www.w3.org/1999/xlink" x="0px" y="0px" viewBox="0 0 374.9 277.1"
	 style="enable-background:new 0 0 374.9 277.1;" xml:space="preserve">
<style type="text/css">
	.st0{fill:#E6E7E8;}
	.st1{fill:#FFFFFF;}
	.st2{fill:#1FC3F3;}
	.st3{fill:#F5F5F6;}
</style>
<path class="st0" d="M9.7,82.1L269.4,1.4c5.9-1.8,12.1,1.5,13.9,7.3L330,159.1c1.8,5.9-1.5,12.1-7.3,13.9L63,253.6
	c-5.9,1.8-12.1-1.5-13.9-7.3L2.4,96C0.6,90.1,3.9,83.9,9.7,82.1z"/>
<path class="st1" d="M14.1,82.7L268,3.8c5.9-1.8,12.1,1.5,13.9,7.3l44.8,144.3c1.8,5.9-1.5,12.1-7.3,13.9L65.5,248.2
	c-5.9,1.8-12.1-1.5-13.9-7.3L6.8,96.6C5,90.7,8.3,84.5,14.1,82.7z"/>
<rect x="7.5" y="64.5" transform="matrix(0.955 -0.2967 0.2967 0.955 -15.9971 48.4331)" class="st2" width="288.1" height="24.8"/>
<rect x="67.1" y="202.8" transform="matrix(0.955 -0.2967 0.2967 0.955 -57.0973 40.1527)" class="st0" width="73.2" height="10.7"/>
<rect x="60.5" y="178.4" transform="matrix(0.955 -0.2967 0.2967 0.955 -48.9459 45.0696)" class="st0" width="126.9" height="10.7"/>
<path class="st0" d="M86.9,95.3h273.6c6.1,0,11.1,5,11.1,11.1V264c0,6.1-5,11.1-11.1,11.1H86.9c-6.1,0-11.1-5-11.1-11.1V106.4
	C75.8,100.3,80.7,95.3,86.9,95.3z"/>
<path class="st1" d="M90.2,97.1h265.9c6.1,0,11.1,5,11.1,11.1v151.1c0,6.1-5,11.1-11.1,11.1H90.2c-6.1,0-11.1-5-11.1-11.1V108.2
	C79.1,102.1,84.1,97.1,90.2,97.1z"/>
<g>
	<path class="st0" d="M109.9,207.5c-0.4,0-0.6-0.2-0.6-0.6v-18l-3.1,2.2c-0.3,0.2-0.6,0.2-0.9-0.2l-2-3.1c-0.2-0.3-0.1-0.6,0.2-0.8
		l6.1-4.3c0.2-0.2,0.5-0.2,0.8-0.2h3.7c0.4,0,0.6,0.2,0.6,0.6v23.8c0,0.4-0.2,0.6-0.6,0.6H109.9z"/>
	<path class="st0" d="M120,207.5c-0.4,0-0.6-0.2-0.6-0.6v-3c0-0.3,0.1-0.6,0.3-0.8l5.7-5.8c3.8-3.8,5.6-5.7,5.6-7.7
		c0-1.3-0.8-2.5-3-2.5c-2.1,0-3.6,1.1-4.9,2.4c-0.3,0.3-0.6,0.3-0.8,0l-2.2-2.9c-0.2-0.3-0.2-0.6,0-0.9c1.9-2,4.5-3.6,8.1-3.6
		c4.9,0,8.2,2.6,8.2,7.4c0,2.9-1.4,5-4,8c-1.5,1.7-3.3,3.5-5.2,5.2h8.9c0.4,0,0.6,0.2,0.6,0.6v3.7c0,0.4-0.2,0.6-0.6,0.6H120z"/>
	<path class="st0" d="M149,207.9c-4,0-6.6-1.3-8.6-3c-0.3-0.3-0.2-0.6,0-0.9l2.1-2.9c0.2-0.3,0.6-0.2,0.9,0c1.6,1,3,1.8,5.6,1.8
		c2.3,0,3.8-1.2,3.8-3.7c0-2.2-1.4-3.4-4.1-3.4c-0.6,0-1.5,0.1-2.3,0.3c-0.4,0.1-0.6,0-0.8-0.4l-0.8-1.9c-0.1-0.3-0.1-0.6,0.2-0.8
		l5.6-5.6h-8.4c-0.4,0-0.6-0.2-0.6-0.6v-3.7c0-0.4,0.2-0.6,0.6-0.6h14.6c0.4,0,0.6,0.2,0.6,0.6v2.9c0,0.3-0.1,0.6-0.3,0.8l-5.7,5.7
		v0.1c3.8-0.1,6.9,2.7,6.9,6.9C158.3,204.9,154.7,207.9,149,207.9z"/>
	<path class="st0" d="M165.1,207.8c-1.9,0-3.1-1.3-3.1-3c0-1.8,1.3-3.1,3.1-3.1s3.2,1.3,3.2,3.1
		C168.2,206.5,166.9,207.8,165.1,207.8z"/>
	<path class="st0" d="M175.9,207.5c-0.4,0-0.6-0.2-0.6-0.6v-18l-3.1,2.2c-0.3,0.2-0.6,0.2-0.9-0.2l-2-3.1c-0.2-0.3-0.1-0.6,0.2-0.8
		l6.1-4.3c0.2-0.2,0.5-0.2,0.8-0.2h3.7c0.4,0,0.6,0.2,0.6,0.6v23.8c0,0.4-0.2,0.6-0.6,0.6H175.9z"/>
	<path class="st0" d="M186,207.5c-0.4,0-0.6-0.2-0.6-0.6v-3c0-0.3,0.1-0.6,0.3-0.8l5.7-5.8c3.8-3.8,5.6-5.7,5.6-7.7
		c0-1.3-0.8-2.5-3-2.5c-2.1,0-3.6,1.1-4.9,2.4c-0.3,0.3-0.6,0.3-0.8,0l-2.2-2.9c-0.2-0.3-0.2-0.6,0-0.9c1.9-2,4.5-3.6,8.1-3.6
		c4.9,0,8.2,2.6,8.2,7.4c0,2.9-1.4,5-4,8c-1.5,1.7-3.3,3.5-5.2,5.2h8.9c0.4,0,0.6,0.2,0.6,0.6v3.7c0,0.4-0.2,0.6-0.6,0.6H186z"/>
	<path class="st0" d="M215,207.9c-4,0-6.6-1.3-8.6-3c-0.3-0.3-0.2-0.6,0-0.9l2.1-2.9c0.2-0.3,0.6-0.2,0.9,0c1.6,1,3,1.8,5.6,1.8
		c2.3,0,3.8-1.2,3.8-3.7c0-2.2-1.4-3.4-4.1-3.4c-0.6,0-1.5,0.1-2.3,0.3c-0.4,0.1-0.6,0-0.8-0.4l-0.8-1.9c-0.1-0.3-0.1-0.6,0.2-0.8
		l5.6-5.6h-8.4c-0.4,0-0.6-0.2-0.6-0.6v-3.7c0-0.4,0.2-0.6,0.6-0.6h14.6c0.4,0,0.6,0.2,0.6,0.6v2.9c0,0.3-0.1,0.6-0.3,0.8l-5.7,5.7
		v0.1c3.8-0.1,6.9,2.7,6.9,6.9C224.3,204.9,220.7,207.9,215,207.9z"/>
	<path class="st0" d="M231.1,207.8c-1.9,0-3.1-1.3-3.1-3c0-1.8,1.3-3.1,3.1-3.1s3.2,1.3,3.2,3.1
		C234.2,206.5,232.9,207.8,231.1,207.8z"/>
	<path class="st0" d="M241.9,207.5c-0.4,0-0.6-0.2-0.6-0.6v-18l-3.1,2.2c-0.3,0.2-0.6,0.2-0.9-0.2l-2-3.1c-0.2-0.3-0.1-0.6,0.2-0.8
		l6.1-4.3c0.2-0.2,0.5-0.2,0.8-0.2h3.7c0.4,0,0.6,0.2,0.6,0.6v23.8c0,0.4-0.2,0.6-0.6,0.6H241.9z"/>
	<path class="st0" d="M252,207.5c-0.4,0-0.6-0.2-0.6-0.6v-3c0-0.3,0.1-0.6,0.3-0.8l5.7-5.8c3.8-3.8,5.6-5.7,5.6-7.7
		c0-1.3-0.8-2.5-3-2.5c-2.1,0-3.6,1.1-4.9,2.4c-0.3,0.3-0.6,0.3-0.8,0l-2.2-2.9c-0.2-0.3-0.2-0.6,0-0.9c1.9-2,4.5-3.6,8.1-3.6
		c4.9,0,8.2,2.6,8.2,7.4c0,2.9-1.4,5-4,8c-1.5,1.7-3.3,3.5-5.2,5.2h8.9c0.4,0,0.6,0.2,0.6,0.6v3.7c0,0.4-0.2,0.6-0.6,0.6H252z"/>
	<path class="st0" d="M281,207.9c-4,0-6.6-1.3-8.6-3c-0.3-0.3-0.2-0.6,0-0.9l2.1-2.9c0.2-0.3,0.6-0.2,0.9,0c1.6,1,3,1.8,5.6,1.8
		c2.3,0,3.8-1.2,3.8-3.7c0-2.2-1.4-3.4-4.1-3.4c-0.6,0-1.5,0.1-2.3,0.3c-0.4,0.1-0.6,0-0.8-0.4l-0.8-1.9c-0.1-0.3-0.1-0.6,0.2-0.8
		l5.6-5.6h-8.4c-0.4,0-0.6-0.2-0.6-0.6v-3.7c0-0.4,0.2-0.6,0.6-0.6h14.6c0.4,0,0.6,0.2,0.6,0.6v2.9c0,0.3-0.1,0.6-0.3,0.8l-5.7,5.7
		v0.1c3.8-0.1,6.9,2.7,6.9,6.9C290.3,204.9,286.7,207.9,281,207.9z"/>
	<path class="st0" d="M295.2,199.4c-0.4,0-0.6-0.2-0.6-0.6v-3.5c0-0.4,0.2-0.6,0.6-0.6h8.9c0.4,0,0.6,0.2,0.6,0.6v3.5
		c0,0.4-0.2,0.6-0.6,0.6H295.2z"/>
	<path class="st0" d="M313.3,207.5c-0.4,0-0.6-0.2-0.6-0.6v-18l-3.1,2.2c-0.3,0.2-0.6,0.2-0.9-0.2l-2-3.1c-0.2-0.3-0.1-0.6,0.2-0.8
		l6.1-4.3c0.2-0.2,0.5-0.2,0.8-0.2h3.7c0.4,0,0.6,0.2,0.6,0.6v23.8c0,0.4-0.2,0.6-0.6,0.6H313.3z"/>
	<path class="st0" d="M323.4,207.5c-0.4,0-0.6-0.2-0.6-0.6v-3c0-0.3,0.1-0.6,0.3-0.8l5.7-5.8c3.8-3.8,5.6-5.7,5.6-7.7
		c0-1.3-0.8-2.5-3-2.5c-2.1,0-3.6,1.1-4.9,2.4c-0.3,0.3-0.6,0.3-0.8,0l-2.2-2.9c-0.2-0.3-0.2-0.6,0-0.9c1.9-2,4.5-3.6,8.1-3.6
		c4.9,0,8.2,2.6,8.2,7.4c0,2.9-1.4,5-4,8c-1.5,1.7-3.3,3.5-5.2,5.2h8.9c0.4,0,0.6,0.2,0.6,0.6v3.7c0,0.4-0.2,0.6-0.6,0.6H323.4z"/>
</g>
<rect x="299.7" y="239.5" class="st0" width="15.3" height="15.3"/>
<rect x="330.4" y="239.5" class="st0" width="15.3" height="15.3"/>
<rect x="315" y="238.6" class="st3" width="15.3" height="15.3"/>
<g>
	<path class="st2" d="M118.3,160.9c-9.3,0-15.5-4.9-15.5-14.1v-11.1c0-9.2,6.2-14.1,15.3-14.1c4.2,0,8.3,1.3,11.3,3.4
		c0.5,0.3,0.6,0.7,0.3,1.2l-3.3,5.1c-0.4,0.5-0.8,0.6-1.3,0.3c-2-1.3-4.5-1.9-6.8-1.9c-4.5,0-6.8,2.5-6.8,6.4v10.4
		c0,4.1,2.5,6.4,6.9,6.4c2.6,0,5.2-0.8,7.4-2.2c0.5-0.4,1-0.3,1.3,0.2l3.4,5.1c0.3,0.5,0.3,0.9-0.1,1.2
		C127.2,159.3,123.2,160.9,118.3,160.9z"/>
	<path class="st2" d="M150.4,122.3c8.3,0,13.6,5.2,13.6,13.4c0,8.3-5.2,13.5-13.6,13.5h-6.5v10.1c0,0.6-0.3,1-0.9,1h-6.7
		c-0.6,0-0.9-0.3-0.9-1v-36c0-0.6,0.3-1,0.9-1H150.4z M149.2,141.2c4,0,6-1.8,6-5.6c0-3.7-2-5.6-6-5.6h-5.3v11.1H149.2z"/>
	<path class="st2" d="M194.1,129.3c0,0.6-0.3,0.9-1,0.9h-15.4v8.3h13.1c0.6,0,0.9,0.3,0.9,1v5.8c0,0.6-0.3,1-0.9,1h-13.1v13
		c0,0.6-0.3,1-1,1h-6.6c-0.6,0-1-0.3-1-1v-36c0-0.6,0.3-1,1-1h22.9c0.6,0,1,0.3,1,1V129.3z"/>
</g>
</svg>
