<?xml version="1.0" encoding="utf-8"?>
<!-- Generator: Adobe Illustrator 23.0.1, SVG Export Plug-In . SVG Version: 6.00 Build 0)  -->
<svg version="1.1" id="Camada_1" xmlns="http://www.w3.org/2000/svg" xmlns:xlink="http://www.w3.org/1999/xlink" x="0px" y="0px"
	 viewBox="0 0 81.2 104.9" style="enable-background:new 0 0 81.2 104.9;" xml:space="preserve">
<style type="text/css">
	.st0{clip-path:url(#SVGID_2_);fill:#26C3EF;}
	.st1{clip-path:url(#SVGID_2_);fill:#FFFFFF;}
	.st2{clip-path:url(#SVGID_2_);fill:#113C64;}
	.st3{clip-path:url(#SVGID_2_);fill:#FFCB05;}
</style>
<g>
	<defs>
		<rect id="SVGID_1_" y="0" width="81.2" height="104.9"/>
	</defs>
	<clipPath id="SVGID_2_">
		<use xlink:href="#SVGID_1_"  style="overflow:visible;"/>
	</clipPath>
	<path class="st0" d="M79.1,102.8H1.6V81.8c0-12.3,5.3-22.3,17.6-22.3H60c12.7,0,19.1,10.3,19.1,22.9V102.8z"/>
	<polyline class="st1" points="26.1,60 39.7,99.6 55.8,60 25.8,60 	"/>
	<path class="st2" d="M64.1,58.4H17c-9.4,0-17,7.6-17,17v27.5c0,1.1,0.9,2,2,2h77.1c1.1,0,2-0.9,2-2c0-1.1-0.9-2-2-2H43.4l13.2-38.4
		h7.5c7.1,0,12.9,5.8,12.9,12.9v11.1c0,1.1,0.9,2,2,2c1.1,0,2-0.9,2-2V75.4C81.2,66,73.5,58.4,64.1,58.4 M13.9,100.8V87.6
		c0-1.1-0.9-2-2-2c-1.1,0-2.1,0.9-2.1,2v13.2H4.1V75.4c0-7.1,5.8-12.9,12.9-12.9h7.4l13.2,38.4H13.9z M42.6,90.5V72.6
		c0-1.1-0.9-2.1-2-2.1c-1.1,0-2,0.9-2,2.1v18.2l-9.8-28.3h23.6L42.6,90.5z M79.1,92.6c-0.5,0-1.1,0.2-1.5,0.6
		c-0.4,0.4-0.6,0.9-0.6,1.4s0.2,1.1,0.6,1.4c0.4,0.4,0.9,0.6,1.5,0.6c0.5,0,1.1-0.2,1.4-0.6c0.4-0.4,0.6-0.9,0.6-1.4
		s-0.2-1.1-0.6-1.4C80.2,92.8,79.6,92.6,79.1,92.6 M29.6,22.6c3.2,0,5.8-2.6,5.8-5.8c0-1.4,0.6-2.8,1.6-3.8c1.1-1,2.4-1.5,3.9-1.4
		c2.5,0.2,4.6,2.2,4.8,4.8c0.2,2.6-1.5,4.9-4,5.4c-4.1,0.9-7,4.5-7,8.7v4.1c0,3.2,2.6,5.8,5.8,5.8c3.2,0,5.8-2.6,5.8-5.8v-2
		c3-1.1,5.6-3.1,7.6-5.6c2.5-3.2,3.6-7.3,3.4-11.3C56.8,7.3,50.1,0.6,41.8,0C37-0.3,32.6,1.3,29.1,4.5c-3.4,3.2-5.3,7.6-5.3,12.3
		C23.8,20,26.4,22.6,29.6,22.6 M31.9,7.5c2.6-2.4,6-3.6,9.6-3.4c6.3,0.4,11.3,5.5,11.8,11.8c0.2,3.1-0.7,6.1-2.5,8.6
		c-1.7,2.3-4.2,3.9-6.9,4.6c-0.9,0.2-1.5,1.1-1.5,2v3.5c0,1-0.8,1.7-1.7,1.7c-1,0-1.7-0.8-1.7-1.7v-4.1c0-2.3,1.5-4.2,3.8-4.7
		c4.5-1,7.5-5.1,7.2-9.7c-0.3-4.6-4-8.3-8.6-8.6c-0.2,0-0.4,0-0.7,0c-2.4,0-4.6,0.9-6.3,2.5c-1.9,1.8-2.9,4.2-2.9,6.8
		c0,1-0.8,1.7-1.7,1.7c-1,0-1.7-0.8-1.7-1.7C27.9,13.3,29.3,9.9,31.9,7.5 M11.9,77.4c-0.5,0-1.1,0.2-1.5,0.6
		c-0.4,0.4-0.6,0.9-0.6,1.4c0,0.5,0.2,1.1,0.6,1.4c0.4,0.4,0.9,0.6,1.5,0.6c0.5,0,1.1-0.2,1.4-0.6c0.4-0.4,0.6-0.9,0.6-1.4
		c0-0.5-0.2-1.1-0.6-1.4C13,77.6,12.4,77.4,11.9,77.4 M40.6,42.9c-3.2,0-5.8,2.6-5.8,5.8s2.6,5.8,5.8,5.8c3.2,0,5.8-2.6,5.8-5.8
		S43.8,42.9,40.6,42.9 M40.6,50.4c-1,0-1.7-0.8-1.7-1.7c0-1,0.8-1.7,1.7-1.7c1,0,1.7,0.8,1.7,1.7C42.3,49.6,41.5,50.4,40.6,50.4"/>
	<path class="st3" d="M31.9,7.5c2.6-2.4,6-3.6,9.6-3.4c6.3,0.4,11.3,5.5,11.8,11.8c0.2,3.1-0.7,6.1-2.5,8.6
		c-1.7,2.3-4.2,3.9-6.9,4.6c-0.9,0.2-1.5,1.1-1.5,2v3.5c0,1-0.8,1.7-1.7,1.7c-1,0-1.7-0.8-1.7-1.7v-4.1c0-2.3,1.5-4.2,3.8-4.7
		c4.5-1,7.5-5.1,7.2-9.7c-0.3-4.6-4-8.3-8.6-8.6c-0.2,0-0.4,0-0.7,0c-2.4,0-4.6,0.9-6.3,2.5c-1.9,1.8-2.9,4.2-2.9,6.8
		c0,1-0.8,1.7-1.7,1.7c-1,0-1.7-0.8-1.7-1.7C27.9,13.3,29.3,9.9,31.9,7.5"/>
	<path class="st3" d="M40.6,50.4c-1,0-1.7-0.8-1.7-1.7c0-1,0.8-1.7,1.7-1.7c1,0,1.7,0.8,1.7,1.7C42.3,49.6,41.5,50.4,40.6,50.4"/>
</g>
</svg>
