<?xml version="1.0" encoding="utf-8"?>
<!-- Generator: Adobe Illustrator 23.0.1, SVG Export Plug-In . SVG Version: 6.00 Build 0)  -->
<svg version="1.1" id="Camada_1" xmlns="http://www.w3.org/2000/svg" xmlns:xlink="http://www.w3.org/1999/xlink" x="0px" y="0px"
	 viewBox="0 0 220.3 208.5" style="enable-background:new 0 0 220.3 208.5;" xml:space="preserve">
<style type="text/css">
	.st0{clip-path:url(#SVGID_2_);fill:#20C4F4;}
	.st1{clip-path:url(#SVGID_2_);fill:#495E85;}
	.st2{clip-path:url(#SVGID_2_);fill:#FFCF50;}
	.st3{clip-path:url(#SVGID_2_);fill:#E5E5E5;}
	.st4{clip-path:url(#SVGID_2_);fill:#113C64;}
</style>
<g>
	<defs>
		<rect id="SVGID_1_" width="220.3" height="208.5"/>
	</defs>
	<clipPath id="SVGID_2_">
		<use xlink:href="#SVGID_1_"  style="overflow:visible;"/>
	</clipPath>
	<path class="st0" d="M54.5,90.5l25.8,44.7C68.6,142,55,149.8,43,156.7c-12.3,7.1-28.1,2.9-35.3-9.4c-7.1-12.3-3-28.1,9.5-35.3
		L54.5,90.5z"/>
	<path class="st0" d="M176.2,104.9c3.3,5.7-0.7,12.7-7.2,12.9l-4.8,1l-0.1-0.5l-55.4-95.9l-0.4-0.3l3.1-3.9
		c3.4-5.6,11.5-5.5,14.8,0.2C212.1,167.1,103.7-20.7,176.2,104.9"/>
	<path class="st1" d="M89.1,184.8c3.6,6.2,1.5,14.1-4.7,17.6c-6.2,3.6-14.1,1.4-17.6-4.7l-23.7-41l22.4-12.9
		C65.6,144.2,89,184.7,89.1,184.8"/>
	<polygon class="st2" points="162.6,46.9 171.2,61.8 160.6,77.8 143.3,48 	"/>
	<polygon class="st3" points="164,118.2 164.1,118.8 80.3,135.2 54.5,90.5 108.2,22 108.6,22.3 	"/>
	<path class="st4" d="M58.9,132.6c2.1-1.2,2.8-3.8,1.6-5.9c-1.2-2.1-3.8-2.8-5.9-1.6c-2.1,1.2-2.8,3.8-1.6,5.9
		C54.2,133.1,56.9,133.8,58.9,132.6"/>
	<path class="st4" d="M41.3,162.3L63,199.9c4.7,8.1,15.2,11.1,23.5,6.3c8.2-4.8,11.1-15.3,6.3-23.5l-12.9-22.4l11.2-6.5
		c2.1-1.2,2.8-3.8,1.6-5.9l-5.6-9.7c0.7-0.1,5.1-1,82.4-16.2c9.6-0.5,15.3-11,10.5-19.3L165.6,78l9.1-13.8c0.9-1.4,1-3.1,0.1-4.5
		l-8.6-14.9c-0.8-1.4-2.4-2.2-4-2.1l-16.6,1l-15.9-27.5c-2.3-4-6.4-6.4-11-6.5c-0.1,0-0.1,0-0.2,0c-4.4,0-8.5,2.2-10.9,6L51.6,87.2
		l-36.5,21.1C0.7,116.6-4.3,135,4,149.4C11.6,162.6,27.7,167.8,41.3,162.3 M85.3,187c2.4,4.1,1,9.4-3.2,11.8
		c-4.1,2.4-9.4,0.9-11.8-3.2l-21.5-37.3l14.9-8.6C88.7,192.8,84.9,186.3,85.3,187 M75.6,152.8l-4.3-7.5l7.5-4.3l4.3,7.5L75.6,152.8z
		 M160.2,51.3l5.9,10.3l-5.3,8l-10.3-17.8L160.2,51.3z M115,20.3c1.2-1.9,3-2.1,3.7-2.1c0.7,0,2.6,0.2,3.7,2.1l50,86.7
		c1.6,2.8-0.4,6.4-3.6,6.5c-0.6,0-0.9,0.1-2.4,0.4l-52.9-91.7C114.7,20.8,114.8,20.7,115,20.3 M107.8,29.5l49.7,86.2l-75.1,14.7
		L59.7,90.9L107.8,29.5z M11.5,145.1c-1.9-3.3-2.9-7-2.9-10.7c0-7.7,4.1-14.8,10.8-18.7l33.5-19.4l21.5,37.3L40.9,153
		C30.6,158.9,17.4,155.4,11.5,145.1"/>
	<path class="st4" d="M45.6,135.4c-1.2-2.1-3.8-2.8-5.9-1.6l-7.5,4.3c-2.1,1.2-4.7,0.5-5.9-1.6c-1.2-2.1-3.8-2.8-5.9-1.6
		c-2.1,1.2-2.8,3.8-1.6,5.9c3.5,6.1,11.4,8.3,17.6,4.7l7.5-4.3C46.1,140,46.8,137.4,45.6,135.4"/>
	<path class="st4" d="M213.9,18.8l-24,13.3c-2.1,1.2-2.8,3.8-1.7,5.9c1.2,2.1,3.8,2.8,5.9,1.7l24-13.3c2.1-1.2,2.8-3.8,1.7-5.9
		C218.6,18.4,216,17.7,213.9,18.8"/>
	<path class="st4" d="M211.4,63.4l-16.6-4.5c-2.3-0.6-4.7,0.7-5.3,3c-0.6,2.3,0.7,4.7,3,5.3l16.6,4.5c2.3,0.6,4.7-0.8,5.3-3
		C215.1,66.4,213.7,64,211.4,63.4"/>
	<path class="st4" d="M169.6,3.2l-4.5,16.6c-0.6,2.3,0.7,4.7,3,5.3c2.3,0.6,4.7-0.7,5.3-3l4.5-16.6c0.6-2.3-0.7-4.7-3-5.3
		C172.6-0.5,170.2,0.9,169.6,3.2"/>
</g>
</svg>
