<?xml version="1.0" encoding="utf-8"?>
<!-- Generator: Adobe Illustrator 24.0.1, SVG Export Plug-In . SVG Version: 6.00 Build 0)  -->
<svg version="1.1" id="Layer_1" xmlns="http://www.w3.org/2000/svg" xmlns:xlink="http://www.w3.org/1999/xlink" x="0px" y="0px"
	 viewBox="0 0 143.9 99.5" style="enable-background:new 0 0 143.9 99.5;" xml:space="preserve">
<style type="text/css">
	.st0{fill:url(#SVGID_1_);}
	.st1{fill:url(#SVGID_2_);}
	.st2{fill:url(#SVGID_3_);}
	.st3{fill:url(#SVGID_4_);}
	.st4{fill:url(#SVGID_5_);}
	.st5{fill:url(#SVGID_6_);}
	.st6{fill:url(#SVGID_7_);}
	.st7{fill:url(#SVGID_8_);}
</style>
<g>
	<g>
		<g>
			<linearGradient id="SVGID_1_" gradientUnits="userSpaceOnUse" x1="123.4208" y1="32.7011" x2="-71.1529" y2="63.4881">
				<stop  offset="0" style="stop-color:#26C3EF;stop-opacity:0"/>
				<stop  offset="1" style="stop-color:#26C3EF"/>
			</linearGradient>
			<path class="st0" d="M140.2,37.8c5.5,5.1,4.5,19.7-9.4,31.5c-13.1,11.6-39.1,20.5-65.5,10.6C38.5,71.2,23.7,48,20.7,30.8
				C17.1,12.9,25.4,0.9,32.9,0.3c8.2-1,16.8,5.6,25.5,10.4c8.8,5.3,17.7,8.8,26.8,12.1c9.1,3.1,18.4,5.9,28.5,7.2
				C123.6,31.7,134.4,31.9,140.2,37.8z"/>
			<linearGradient id="SVGID_2_" gradientUnits="userSpaceOnUse" x1="101.812" y1="39.8389" x2="32.8491" y2="71.8574">
				<stop  offset="0" style="stop-color:#26C3EF;stop-opacity:0"/>
				<stop  offset="1" style="stop-color:#26C3EF"/>
			</linearGradient>
			<path class="st1" d="M102.8,72.1c-11.8,9.1-25,15-34.5,17.2c-9.7,2.2-15.8,0.7-18.1-5.6c-2.4-6.1-2.5-15.2-4.6-22.8
				c-1.7-7.8-5.4-14-5.8-19.6c-0.4-5.4,4.4-10.9,15.9-15.7c11.1-4.6,29-8.5,44.5-5.9c15.7,2.3,23.6,11.1,23.1,21.3
				C123.1,51.4,114.5,63.1,102.8,72.1z"/>
			<linearGradient id="SVGID_3_" gradientUnits="userSpaceOnUse" x1="16.5813" y1="104.6262" x2="116.3311" y2="13.4968">
				<stop  offset="0" style="stop-color:#26C3EF;stop-opacity:0"/>
				<stop  offset="1" style="stop-color:#26C3EF"/>
			</linearGradient>
			<path class="st2" d="M88.8,83.9c-4.6,5.2-12.7,8.7-19.9,11.2c-7.4,2.4-14,3.9-19.7,3.4c-5.7-0.7-10.8-3.8-15.4-10.8
				c-4.4-6.7-8.2-17.2-7.2-27.9c0.8-10.7,6.5-18.1,14-19.9c7.6-2,17,1.6,26.4,7.5C86.1,60,98.6,73.6,88.8,83.9z"/>
			
				<linearGradient id="SVGID_4_" gradientUnits="userSpaceOnUse" x1="-924.4489" y1="667.7601" x2="-858.2236" y2="667.7601" gradientTransform="matrix(0.9441 0.3297 -0.3297 0.9441 1095.5558 -280.8477)">
				<stop  offset="0" style="stop-color:#26C3EF;stop-opacity:0"/>
				<stop  offset="1" style="stop-color:#26C3EF"/>
			</linearGradient>
			<path class="st3" d="M62.8,64.6c-8.8,12.6-18.9,21.2-25.9,25c-7.3,3.9-11.4,3-14.3-1.3c-2.9-4.3-4.8-11.6-8.5-18
				C10.7,63.8,5.5,58.2,2.2,55c-3.2-3.4-2.7-4.8,4.6-8.8c7-3.7,20.7-10,35.6-14.9c14.9-4.9,26.4-4.8,29.8,1.8
				C75.9,39.4,71.5,52.3,62.8,64.6z"/>
		</g>
		<g>
			
				<linearGradient id="SVGID_5_" gradientUnits="userSpaceOnUse" x1="648.332" y1="114.6975" x2="791.2899" y2="114.6975" gradientTransform="matrix(1 0 0 1 -648 -65.2974)">
				<stop  offset="0" style="stop-color:#26C3EF;stop-opacity:0"/>
				<stop  offset="1" style="stop-color:#26C3EF"/>
			</linearGradient>
			<path class="st4" d="M140.2,37.8c5.5,5.1,4.5,19.7-9.4,31.5c-13.1,11.6-39.1,20.5-65.5,10.6C38.5,71.2,23.7,48,20.7,30.8
				C17.1,12.9,25.4,0.9,32.9,0.3c8.2-1,16.8,5.6,25.5,10.4c8.8,5.3,17.7,8.8,26.8,12.1c9.1,3.1,18.4,5.9,28.5,7.2
				C123.6,31.7,134.4,31.9,140.2,37.8z"/>
			
				<linearGradient id="SVGID_6_" gradientUnits="userSpaceOnUse" x1="648.332" y1="114.6975" x2="791.2899" y2="114.6975" gradientTransform="matrix(1 0 0 1 -648 -65.2974)">
				<stop  offset="0" style="stop-color:#26C3EF;stop-opacity:0"/>
				<stop  offset="1" style="stop-color:#26C3EF"/>
			</linearGradient>
			<path class="st5" d="M102.8,72.1c-11.8,9.1-25,15-34.5,17.2c-9.7,2.2-15.8,0.7-18.1-5.6c-2.4-6.1-2.5-15.2-4.6-22.8
				c-1.7-7.8-5.4-14-5.8-19.6c-0.4-5.4,4.4-10.9,15.9-15.7c11.1-4.6,29-8.5,44.5-5.9c15.7,2.3,23.6,11.1,23.1,21.3
				C123.1,51.4,114.5,63.1,102.8,72.1z"/>
			
				<linearGradient id="SVGID_7_" gradientUnits="userSpaceOnUse" x1="648.332" y1="114.6975" x2="791.2899" y2="114.6975" gradientTransform="matrix(1 0 0 1 -648 -65.2974)">
				<stop  offset="0" style="stop-color:#26C3EF;stop-opacity:0"/>
				<stop  offset="1" style="stop-color:#26C3EF"/>
			</linearGradient>
			<path class="st6" d="M88.8,83.9c-4.6,5.2-12.7,8.7-19.9,11.2c-7.4,2.4-14,3.9-19.7,3.4c-5.7-0.7-10.8-3.8-15.4-10.8
				c-4.4-6.7-8.2-17.2-7.2-27.9c0.8-10.7,6.5-18.1,14-19.9c7.6-2,17,1.6,26.4,7.5C86.1,60,98.6,73.6,88.8,83.9z"/>
			
				<linearGradient id="SVGID_8_" gradientUnits="userSpaceOnUse" x1="648.332" y1="114.6975" x2="791.2899" y2="114.6975" gradientTransform="matrix(1 0 0 1 -648 -65.2974)">
				<stop  offset="0" style="stop-color:#26C3EF;stop-opacity:0"/>
				<stop  offset="1" style="stop-color:#26C3EF"/>
			</linearGradient>
			<path class="st7" d="M62.8,64.6c-8.8,12.6-18.9,21.2-25.9,25c-7.3,3.9-11.4,3-14.3-1.3c-2.9-4.3-4.8-11.6-8.5-18
				C10.7,63.8,5.5,58.2,2.2,55c-3.2-3.4-2.7-4.8,4.6-8.8c7-3.7,20.7-10,35.6-14.9c14.9-4.9,26.4-4.8,29.8,1.8
				C75.9,39.4,71.5,52.3,62.8,64.6z"/>
		</g>
	</g>
</g>
</svg>
