<?xml version="1.0" encoding="utf-8"?>
<!-- Generator: Adobe Illustrator 24.0.1, SVG Export Plug-In . SVG Version: 6.00 Build 0)  -->
<svg version="1.1" id="ad1dd13e-2ec4-4c24-88e7-d38d592282c0"
	 xmlns="http://www.w3.org/2000/svg" xmlns:xlink="http://www.w3.org/1999/xlink" x="0px" y="0px" viewBox="0 0 343.1 402.2"
	 style="enable-background:new 0 0 343.1 402.2;" xml:space="preserve">
<style type="text/css">
	.st0{fill:#E6E7E8;}
	.st1{fill:#FFFFFF;}
	.st2{fill:#E6E6E6;}
	.st3{fill:#CCCCCC;}
	.st4{fill:#1FC3F3;}
</style>
<g>
	<path class="st0" d="M225.4,0.3H7.9c-4.2,0-7.6,3.4-7.6,7.6v293.9c0,4.2,3.4,7.6,7.6,7.6h217.5c4.2,0,7.6-3.4,7.6-7.6V7.9
		C233,3.7,229.6,0.3,225.4,0.3z"/>
	<path class="st1" d="M11.1,4.6c-3,0.1-5.5,2.6-5.4,5.6v289.3c0,3,2.4,5.6,5.4,5.6h211.1c3-0.1,5.5-2.6,5.4-5.6V10.2
		c0-3-2.4-5.6-5.4-5.6H11.1z"/>
	<path class="st2" d="M22.1,18c-2,0-3.6,1.8-3.6,4.1v39.8c0,2.3,1.6,4.1,3.6,4.1h189.2c2,0,3.6-1.8,3.6-4.1V22.1
		c0-2.3-1.6-4.1-3.6-4.1H22.1z"/>
	<path class="st2" d="M22.1,85.4c-2,0-3.7,1.7-3.6,3.8v85.1c0,2,1.6,3.7,3.6,3.8h189.2c2,0,3.7-1.7,3.6-3.8V89.1
		c0-2-1.6-3.7-3.6-3.8H22.1z"/>
	<rect x="41.8" y="23.6" class="st1" width="149.6" height="8.5"/>
	<rect x="42.1" y="41.6" class="st1" width="149.6" height="4"/>
	<rect x="42.1" y="48.6" class="st1" width="149.6" height="4"/>
	<rect x="42.1" y="55.6" class="st1" width="149.6" height="4"/>
	<path class="st1" d="M130.7,178.1h68.9c1.2,0,2.2-1,2.2-2.2c0-0.6-0.2-1.2-0.6-1.6l-44.1-44.1c-0.9-0.9-2.3-0.9-3.1,0l-11,11
		c-1.8,1.8-4.8,1.8-6.6,0c0,0,0,0,0,0l-34.3-34.3c-0.9-0.9-2.3-0.9-3.1,0L31.8,174c-0.9,0.9-0.9,2.3,0,3.1c0.4,0.4,1,0.6,1.6,0.6
		h97.4L130.7,178.1z"/>
	<circle class="st1" cx="48.8" cy="105.4" r="8.5"/>
	<path class="st2" d="M22.1,197.9c-2,0-3.7,1.7-3.6,3.8v85.1c0,2,1.6,3.7,3.6,3.8h189.2c2,0,3.7-1.7,3.6-3.8v-85.1
		c0-2-1.6-3.7-3.6-3.8H22.1z"/>
	<path class="st1" d="M130.7,290.7h68.9c1.2,0,2.2-1,2.2-2.2c0-0.6-0.2-1.2-0.6-1.6l-44.1-44.1c-0.9-0.9-2.3-0.9-3.1,0l-11,11
		c-1.8,1.8-4.8,1.8-6.6,0c0,0,0,0,0,0l-34.3-34.3c-0.9-0.9-2.3-0.9-3.1,0l-67.1,67.1c-0.9,0.9-0.9,2.3,0,3.1c0.4,0.4,1,0.6,1.6,0.6
		h97.4L130.7,290.7z"/>
	<circle class="st1" cx="48.8" cy="218" r="8.5"/>
	<path class="st0" d="M86.3,69.8c-2.9,0-5.3,2.4-5.3,5.4v298.1c0,3,2.4,5.4,5.3,5.4h218.8c2.9,0,5.3-2.4,5.3-5.4V75.2
		c0-3-2.4-5.4-5.3-5.4H86.3z"/>
	<path class="st1" d="M89.8,73.4c-3,0.1-5.5,2.6-5.4,5.6v289.3c0,3,2.4,5.6,5.4,5.6H301c3-0.1,5.5-2.6,5.4-5.6V79
		c0-3-2.4-5.6-5.4-5.6H89.8z"/>
	<path class="st3" d="M121.7,209c-0.3,0-0.6,0.3-0.6,0.6v4.4c0,0.3,0.3,0.6,0.6,0.6h146c0.3,0,0.6-0.3,0.6-0.6v-4.4
		c0-0.3-0.3-0.6-0.6-0.6H121.7z"/>
	<path class="st3" d="M121.7,223.2c-0.3,0-0.6,0.3-0.6,0.6v4.4c0,0.3,0.3,0.6,0.6,0.6h146c0.3,0,0.6-0.3,0.6-0.6v-4.4
		c0-0.3-0.3-0.6-0.6-0.6H121.7z"/>
	<path class="st3" d="M121.7,237.4c-0.3,0-0.6,0.3-0.6,0.6v4.4c0,0.3,0.3,0.6,0.6,0.6h146c0.3,0,0.6-0.3,0.6-0.6V238
		c0-0.3-0.3-0.6-0.6-0.6H121.7z"/>
	<path class="st3" d="M121.7,251.6c-0.3,0-0.6,0.3-0.6,0.6v4.4c0,0.3,0.3,0.6,0.6,0.6h146c0.3,0,0.6-0.3,0.6-0.6v-4.4
		c0-0.3-0.3-0.6-0.6-0.6H121.7z"/>
	<path class="st3" d="M121.7,265.8c-0.3,0-0.6,0.3-0.6,0.6v4.4c0,0.3,0.3,0.6,0.6,0.6h146c0.3,0,0.6-0.3,0.6-0.6v-4.4
		c0-0.3-0.3-0.6-0.6-0.6H121.7z"/>
	<path class="st3" d="M121.7,280c-0.3,0-0.6,0.3-0.6,0.6v4.4c0,0.3,0.3,0.6,0.6,0.6h146c0.3,0,0.6-0.3,0.6-0.6v-4.4
		c0-0.3-0.3-0.6-0.6-0.6H121.7z"/>
	<path class="st3" d="M121.7,294.2c-0.3,0-0.6,0.3-0.6,0.6v4.4c0,0.3,0.3,0.6,0.6,0.6h146c0.3,0,0.6-0.3,0.6-0.6v-4.4
		c0-0.3-0.3-0.6-0.6-0.6H121.7z"/>
	<path class="st3" d="M121.7,308.4c-0.3,0-0.6,0.3-0.6,0.6v4.4c0,0.3,0.3,0.6,0.6,0.6h146c0.3,0,0.6-0.3,0.6-0.6V309
		c0-0.3-0.3-0.6-0.6-0.6H121.7z"/>
	<path class="st3" d="M121.7,322.5c-0.3,0-0.6,0.3-0.6,0.6v4.4c0,0.3,0.3,0.6,0.6,0.6h146c0.3,0,0.6-0.3,0.6-0.6v-4.4
		c0-0.3-0.3-0.6-0.6-0.6H121.7z"/>
	<circle class="st4" cx="293.8" cy="352.1" r="48.7"/>
	<polygon class="st1" points="288.3,372.7 268.7,354.5 276.2,346.9 287.7,357.6 311,333 318.8,340.4 	"/>
	<g>
		<g>
			<path class="st1" d="M212.4,150.3c-4,0.6-7.8-0.1-11-2.7c-2.5-2-4-4.7-4.5-7.9c-0.5-2.9,0-5.6,1.2-8.3c0.2-0.5,0.5-0.7,1.1-0.7
				c1.7,0,3.5,0,5.2,0c0.3,0,0.7,0,0.8,0.4c0.2,0.3,0,0.6-0.2,0.8c-1.1,1.4-1.7,2.9-1.8,4.7c-0.1,1.9,0.1,3.7,1.1,5.3
				c2.4,4.2,8.6,4.5,11.3,0.4c2-3,1.8-7.6-0.4-10.4c-1.3-1.6-3-2.3-5-2.3c-5.2,0-10.4,0-15.6,0c-0.5,0-0.4,0.2-0.4,0.5
				c0,6.8,0,13.5,0,20.3c0,2.5-0.6,4.8-2.1,6.9c-1.6,2.2-3.8,3.4-6.4,3.9c-3.9,0.7-7.7,0.3-11.3-1.5c-1-0.5-1.8-1.2-2.4-2.1
				c-1-1.5-0.9-3.6,0.1-4.9c1-1.2,2.6-1.5,4.1-0.9c1.4,0.6,2.2,1.9,2,3.5c-0.1,0.4,0.1,0.5,0.4,0.6c1.7,0.5,3.5,0.7,5.2,0.2
				c2.4-0.6,3.8-2.2,4.2-4.6c0.1-0.6,0.1-1.1,0.1-1.7c0-5.9,0-11.7,0-17.6c0-0.4-0.1-0.6-0.4-0.8c-2-1.3-4.2-1.9-6.6-1.5
				c-2.7,0.4-4.6,2.5-5,5.3c-0.2,1.5-0.2,3,0.2,4.5c1,3.5,4.1,4.7,7,4.4c1-0.1,1.8-0.4,2.7-0.9c0.6-0.3,1.1-0.1,1.1,0.6
				c0,1,0,1.9,0,2.9c0,0.3-0.1,0.5-0.4,0.7c-2,1.6-4.3,2.1-6.8,1.8c-3.8-0.4-6.8-2.2-8.7-5.6c-1.4-2.3-1.8-4.8-1.7-7.5
				c0.3-4.3,2.1-7.9,5.8-10.3c4-2.6,9-2.3,12.8,0.7c0.1,0.1,0.1,0.2,0.3,0.1c0-0.7,0-1.4,0-2.1c0-0.3,0.1-0.4,0.4-0.4
				c0.8,0,1.5,0,2.3,0c6.7,0,13.4-0.1,20,0c7,0.1,11.9,5,12.6,11.4C224.3,143,219.6,149.2,212.4,150.3z"/>
		</g>
	</g>
</g>
<g>
	<path class="st4" d="M225.5,162.1c-7.3,1.1-14.1-0.2-20-4.9c-4.6-3.7-7.2-8.6-8.2-14.3c-0.9-5.2-0.1-10.3,2.2-15.1
		c0.4-0.9,1-1.3,2-1.3c3.1,0.1,6.3,0,9.4,0c0.6,0,1.2,0,1.5,0.7c0.3,0.6-0.1,1.1-0.4,1.5c-2,2.5-3,5.3-3.3,8.5
		c-0.3,3.4,0.3,6.6,2,9.6c4.4,7.7,15.6,8.1,20.5,0.8c3.7-5.5,3.3-13.9-0.8-18.8c-2.4-2.8-5.5-4.2-9.1-4.2c-9.4,0-18.9,0-28.3,0
		c-0.8,0-0.8,0.4-0.8,1c0,12.3,0,24.6,0,36.8c0,4.5-1.1,8.8-3.8,12.5c-2.9,3.9-6.9,6.2-11.7,7c-7.2,1.3-14.1,0.6-20.6-2.8
		c-1.8-0.9-3.3-2.2-4.4-3.8c-1.8-2.7-1.7-6.5,0.2-8.8c1.8-2.1,4.8-2.8,7.5-1.6c2.6,1.1,3.9,3.4,3.6,6.4c-0.1,0.8,0.1,1,0.8,1.1
		c3.1,0.9,6.3,1.2,9.5,0.4c4.3-1,7-4,7.6-8.4c0.1-1,0.2-2.1,0.2-3.1c0-10.6,0-21.3,0-31.9c0-0.7-0.2-1.1-0.8-1.5
		c-3.7-2.5-7.7-3.4-12-2.7c-4.8,0.8-8.3,4.5-9.1,9.6c-0.4,2.7-0.4,5.5,0.4,8.1c1.9,6.3,7.5,8.6,12.7,8.1c1.7-0.2,3.4-0.8,4.9-1.6
		c1.2-0.6,2-0.1,2,1.2c0,1.8,0,3.5,0,5.3c0,0.6-0.2,1-0.7,1.3c-3.7,2.9-7.9,3.8-12.4,3.3c-7-0.7-12.3-4-15.9-10.1
		c-2.5-4.2-3.3-8.8-3-13.6c0.5-7.9,3.7-14.3,10.5-18.7c7.3-4.7,16.4-4.2,23.3,1.2c0.1,0.1,0.2,0.3,0.6,0.2c0-1.3,0-2.6,0-3.9
		c0-0.6,0.1-0.8,0.7-0.7c1.4,0,2.8,0,4.2,0c12.1,0,24.3-0.2,36.4,0.1c12.7,0.3,21.6,9.1,22.9,20.8
		C247.1,148.9,238.5,160.2,225.5,162.1z"/>
</g>
</svg>
